<?xml version="1.0" encoding="utf-8"?>
<!-- Generator: Adobe Illustrator 27.3.1, SVG Export Plug-In . SVG Version: 6.00 Build 0)  -->
<svg version="1.1" id="Layer_1" xmlns="http://www.w3.org/2000/svg" xmlns:xlink="http://www.w3.org/1999/xlink" x="0px" y="0px"
	 viewBox="0 0 297.64 240.94" style="enable-background:new 0 0 297.64 240.94;" xml:space="preserve">
<style type="text/css">
	.st0{fill:#0D6361;}
	.st1{fill:url(#SVGID_1_);}
	.st2{fill:url(#SVGID_00000003083270808018519310000004315814339938215859_);}
	.st3{fill:#FFFFFF;stroke:url(#SVGID_00000029761809712888282490000001124737460757077674_);stroke-width:6;stroke-miterlimit:10;}
	.st4{fill:#FFFFFF;}
	.st5{fill:url(#SVGID_00000173120957561354267050000016676197998016272294_);}
</style>
<g>
	<path class="st0" d="M227.37,146.89c-2.51,1.55-5.21,2.84-8.07,3.89c-5.52,2.01-11.21,2.87-17.08,2.58
		c-8.13-0.4-15.96-2.26-23.6-4.95c-4.46-1.57-8.87-3.29-13.29-4.95c-0.26-0.1-0.52-0.19-0.76-0.32c-0.61-0.34-0.81-0.83-0.63-1.5
		c0.25-0.91,0.85-1.16,2.09-0.88c3.34,0.76,6.68,1.53,10.02,2.28c7.54,1.71,15.09,3.27,22.89,3.15c6.57-0.1,12.88-1.15,18.74-4.35
		c3.18-1.73,6.01-3.81,8.45-6.26L227.37,146.89z"/>
	<linearGradient id="SVGID_1_" gradientUnits="userSpaceOnUse" x1="78.3856" y1="32.3488" x2="173.8592" y2="165.6564">
		<stop  offset="0.0793" style="stop-color:#F06DA9"/>
		<stop  offset="0.9399" style="stop-color:#6867AF"/>
	</linearGradient>
	<path class="st1" d="M218.2,63.26c-5.93-2.28-12.26-3.33-18.96-3.23c-8.55,0.13-16.43,2.52-23.7,6.94
		c-5.28,3.2-9.62,7.46-13.27,12.41c-3.83,5.2-6.79,10.87-9.21,16.85c-2.64,6.51-4.65,13.23-6.7,19.93
		c-3.73,12.19-7.42,24.4-11.15,36.59c-1.63,5.33-3.21,10.68-4.98,15.96c-1.91,5.69-4.44,11.11-7.92,16.05
		c-2.3,3.27-5.01,6.16-8.32,8.44c-3.82,2.64-8.09,4.23-12.65,4.99c-11.39,1.9-21.28-1.36-29.48-9.27c-1.1-1.06-2.11-2.15-3.04-3.26
		l5.4-49.67c0.77-0.64,1.58-1.26,2.41-1.86c4.95-3.54,10.54-5.37,16.56-6c7.46-0.78,14.82-0.13,22.12,1.49
		c5.31,1.18,10.61,2.38,15.92,3.57c0.36,0.08,0.72,0.15,1.08,0.18c0.77,0.06,1.21-0.25,1.39-0.92c0.2-0.77,0.03-1.25-0.72-1.55
		c-1.86-0.76-3.75-1.46-5.62-2.19c-5.56-2.16-11.17-4.18-16.94-5.72c-6.83-1.82-13.77-2.61-20.83-2.17
		c-4.94,0.31-9.64,1.48-14.1,3.49l6.46-59.39c0.9-8.31,7.94-14.63,16.31-14.63h103.86C209.96,50.27,216.6,55.77,218.2,63.26z"/>
	<path class="st0" d="M76.64,134.12c-0.84,0.6-1.64,1.22-2.41,1.86l1.27-11.7c4.46-2.01,9.16-3.18,14.1-3.49
		c7.06-0.44,14,0.35,20.83,2.17c5.77,1.54,11.38,3.55,16.94,5.72c1.87,0.73,3.76,1.43,5.62,2.19c0.75,0.31,0.92,0.79,0.72,1.55
		c-0.18,0.67-0.62,0.98-1.39,0.92c-0.36-0.03-0.72-0.1-1.08-0.18c-5.31-1.19-10.61-2.39-15.92-3.57
		c-7.29-1.61-14.66-2.27-22.12-1.49C87.18,128.74,81.59,130.58,76.64,134.12z"/>
	
		<linearGradient id="SVGID_00000018933695679298926470000009652413688996777380_" gradientUnits="userSpaceOnUse" x1="103.2036" y1="92.8909" x2="206.2613" y2="225.8833">
		<stop  offset="0.3109" style="stop-color:#DD3E8D"/>
		<stop  offset="0.7712" style="stop-color:#B04F9A"/>
		<stop  offset="0.9923" style="stop-color:#9E54A1"/>
	</linearGradient>
	<path style="fill:url(#SVGID_00000018933695679298926470000009652413688996777380_);" d="M217.04,220.2H83.37
		c-9.26,0-16.57-7.6-16.42-16.63c1.35,1.05,2.76,2.04,4.23,2.97c7.55,4.74,15.81,7.16,24.7,7.45c6.59,0.21,12.93-0.98,19.08-3.38
		c9.3-3.63,16.36-9.91,21.83-18.12c4.33-6.48,7.65-13.46,10.09-20.85c1.95-5.92,3.8-11.88,5.62-17.85
		c3.95-12.96,7.84-25.94,11.78-38.91c1.8-5.9,3.65-11.8,6.28-17.4c2.57-5.47,5.7-10.55,10.39-14.54c5.87-4.99,12.67-7.4,20.31-7.56
		c5.53-0.12,10.83,1,15.8,3.42c1.07,0.52,2.11,1.09,3.11,1.71l5.99,55.09c-2.44,2.45-5.28,4.53-8.45,6.26
		c-5.87,3.19-12.18,4.25-18.74,4.35c-7.79,0.12-15.35-1.44-22.89-3.15c-3.34-0.76-6.68-1.52-10.02-2.28
		c-1.25-0.28-1.85-0.04-2.09,0.88c-0.18,0.67,0.02,1.16,0.63,1.5c0.24,0.13,0.5,0.23,0.76,0.32c4.43,1.66,8.83,3.38,13.29,4.95
		c7.64,2.69,15.47,4.55,23.6,4.95c5.87,0.29,11.56-0.57,17.08-2.58c2.87-1.04,5.56-2.34,8.07-3.89l5.99,55.15
		C234.42,211.73,226.81,220.2,217.04,220.2z"/>
	<path class="st0" d="M164.27,114.88c-3.94,12.97-7.83,25.95-11.78,38.91c-1.82,5.97-3.67,11.93-5.62,17.85
		c-2.44,7.39-5.76,14.37-10.09,20.85c-5.48,8.2-12.54,14.49-21.83,18.12c-6.15,2.4-12.49,3.59-19.08,3.38
		c-8.89-0.29-17.15-2.71-24.7-7.45c-1.47-0.92-2.88-1.91-4.23-2.97c0.01-0.5,0.04-1.01,0.1-1.52l1.78-16.4
		c0.93,1.12,1.94,2.21,3.04,3.26c8.2,7.91,18.09,11.17,29.48,9.27c4.56-0.76,8.83-2.35,12.65-4.99c3.3-2.28,6.02-5.17,8.32-8.44
		c3.47-4.94,6-10.36,7.92-16.05c1.77-5.28,3.35-10.63,4.98-15.96c3.73-12.19,7.42-24.4,11.15-36.59c2.05-6.7,4.07-13.42,6.7-19.93
		c2.42-5.98,5.38-11.65,9.21-16.85c3.65-4.95,7.99-9.21,13.27-12.41c7.28-4.41,15.16-6.81,23.7-6.94c6.7-0.1,13.03,0.95,18.96,3.23
		c0.12,0.54,0.21,1.08,0.27,1.64l1.7,15.61c-1-0.62-2.04-1.18-3.11-1.71c-4.97-2.42-10.27-3.54-15.8-3.42
		c-7.64,0.16-14.44,2.57-20.31,7.56c-4.69,3.99-7.82,9.07-10.39,14.54C167.92,103.08,166.07,108.97,164.27,114.88z"/>
	
		<linearGradient id="SVGID_00000084523426204582378940000007418138736998593455_" gradientUnits="userSpaceOnUse" x1="45.8498" y1="137.0108" x2="251.788" y2="137.0108">
		<stop  offset="0" style="stop-color:#BE72AF"/>
		<stop  offset="1" style="stop-color:#864E9F"/>
	</linearGradient>
	
		<path style="fill:#FFFFFF;stroke:url(#SVGID_00000084523426204582378940000007418138736998593455_);stroke-width:6;stroke-miterlimit:10;" d="
		M248.79,107.6c-0.05,11.22-3.78,21.18-10.79,29.89c-3.05,3.8-6.61,6.92-10.63,9.4c-2.51,1.55-5.21,2.84-8.07,3.89
		c-5.52,2.01-11.21,2.87-17.08,2.58c-8.13-0.4-15.96-2.26-23.6-4.95c-4.46-1.57-8.87-3.29-13.29-4.95c-0.26-0.1-0.52-0.19-0.76-0.32
		c-0.61-0.34-0.81-0.83-0.63-1.5c0.25-0.91,0.85-1.16,2.09-0.88c3.34,0.76,6.68,1.53,10.02,2.28c7.54,1.71,15.09,3.27,22.89,3.15
		c6.57-0.1,12.88-1.15,18.74-4.35c3.18-1.73,6.01-3.81,8.45-6.26c2.54-2.55,4.65-5.5,6.26-8.87c6.19-12.96,5.57-25.6-2.88-37.5
		c-2.54-3.58-5.7-6.46-9.37-8.72c-1-0.62-2.04-1.18-3.11-1.71c-4.97-2.42-10.27-3.54-15.8-3.42c-7.64,0.16-14.44,2.57-20.31,7.56
		c-4.69,3.99-7.82,9.07-10.39,14.54c-2.63,5.6-4.48,11.49-6.28,17.4c-3.94,12.97-7.83,25.95-11.78,38.91
		c-1.82,5.97-3.67,11.93-5.62,17.85c-2.44,7.39-5.76,14.37-10.09,20.85c-5.48,8.2-12.54,14.49-21.83,18.12
		c-6.15,2.4-12.49,3.59-19.08,3.38c-8.89-0.29-17.15-2.71-24.7-7.45c-1.47-0.92-2.88-1.91-4.23-2.97c-4.45-3.48-8.2-7.67-11.2-12.58
		c-2.02-3.3-3.56-6.83-4.74-10.53c-1.67-5.23-2.36-10.6-2.09-16.06c0.27-5.29,1.33-10.43,3.35-15.38
		c4.16-10.22,10.95-18.07,20.6-23.43c0.87-0.47,1.75-0.9,2.64-1.3c4.46-2.01,9.16-3.18,14.1-3.49c7.06-0.44,14,0.35,20.83,2.17
		c5.77,1.54,11.38,3.55,16.94,5.72c1.87,0.73,3.76,1.43,5.62,2.19c0.75,0.31,0.92,0.79,0.72,1.55c-0.18,0.67-0.62,0.98-1.39,0.92
		c-0.36-0.03-0.72-0.1-1.08-0.18c-5.31-1.19-10.61-2.39-15.92-3.57c-7.29-1.61-14.66-2.27-22.12-1.49c-6.02,0.63-11.61,2.47-16.56,6
		c-0.84,0.6-1.64,1.22-2.41,1.86c-6.41,5.31-10.68,12.13-12.35,20.46c-2.21,11.03,0.06,20.92,6.94,29.21
		c0.93,1.12,1.94,2.21,3.04,3.26c8.2,7.91,18.09,11.17,29.48,9.27c4.56-0.76,8.83-2.35,12.65-4.99c3.3-2.28,6.02-5.17,8.32-8.44
		c3.47-4.94,6-10.36,7.92-16.05c1.77-5.28,3.35-10.63,4.98-15.96c3.73-12.19,7.42-24.4,11.15-36.59c2.05-6.7,4.07-13.42,6.7-19.93
		c2.42-5.98,5.38-11.65,9.21-16.85c3.65-4.95,7.99-9.21,13.27-12.41c7.28-4.41,15.16-6.81,23.7-6.94c6.7-0.1,13.03,0.95,18.96,3.23
		c4.17,1.6,8.14,3.81,11.89,6.66c6.49,4.92,11.33,11.19,14.67,18.62C247.48,94.6,248.82,100.97,248.79,107.6z"/>
	<circle class="st4" cx="161.64" cy="60.98" r="4.28"/>
	<circle class="st4" cx="136" cy="60.98" r="4.28"/>
	<g>
		
			<linearGradient id="SVGID_00000130628643192359886430000002907512744921773977_" gradientUnits="userSpaceOnUse" x1="149.2671" y1="62.7477" x2="147.7436" y2="12.7256">
			<stop  offset="0" style="stop-color:#9E54A1"/>
			<stop  offset="0.3715" style="stop-color:#8E4F9F"/>
			<stop  offset="1" style="stop-color:#6B469C"/>
		</linearGradient>
		<path style="fill:url(#SVGID_00000130628643192359886430000002907512744921773977_);" d="M161.64,62.69
			c-0.95,0-1.71-0.77-1.71-1.71V35.28c0-6.12-4.98-11.11-11.11-11.11c-6.12,0-11.11,4.98-11.11,11.11v25.69
			c0,0.95-0.77,1.71-1.71,1.71c-0.95,0-1.71-0.77-1.71-1.71V35.28c0-8.01,6.52-14.53,14.53-14.53c8.01,0,14.53,6.52,14.53,14.53
			v25.69C163.35,61.92,162.58,62.69,161.64,62.69z"/>
	</g>
</g>
</svg>
