<?xml version="1.0" encoding="utf-8"?>
<!-- Generator: Adobe Illustrator 27.3.1, SVG Export Plug-In . SVG Version: 6.00 Build 0)  -->
<svg version="1.1" id="Layer_1" xmlns="http://www.w3.org/2000/svg" xmlns:xlink="http://www.w3.org/1999/xlink" x="0px" y="0px"
	 viewBox="0 0 297.64 240.94" style="enable-background:new 0 0 297.64 240.94;" xml:space="preserve">
<style type="text/css">
	.st0{fill:url(#SVGID_1_);}
	.st1{fill:url(#SVGID_00000145738695902056544510000015908374379179856009_);}
	.st2{fill:url(#SVGID_00000042720593089094851310000001088522689598943898_);}
	.st3{fill:url(#SVGID_00000181080976165561930300000016773721735619783079_);}
</style>
<g>
	<linearGradient id="SVGID_1_" gradientUnits="userSpaceOnUse" x1="37.0913" y1="120.4724" x2="260.5465" y2="120.4724">
		<stop  offset="0.3109" style="stop-color:#DD3E8D"/>
		<stop  offset="0.7712" style="stop-color:#B04F9A"/>
		<stop  offset="0.9923" style="stop-color:#9E54A1"/>
	</linearGradient>
	<path class="st0" d="M58.8,148.97h9.37v33.15c0,1.66,1.1,3.11,2.69,3.56c0.34,0.1,0.68,0.14,1.01,0.14c1.26,0,2.46-0.64,3.15-1.76
		l21.72-35.1h4.18v1.34c0,11.97,9.74,21.71,21.71,21.71h78.24l21.72,35.1c0.69,1.11,1.89,1.76,3.15,1.76c0.34,0,0.68-0.05,1.01-0.14
		c1.59-0.45,2.69-1.91,2.69-3.56v-33.15h9.37c11.97,0,21.71-9.74,21.71-21.71V76.84c0-11.97-9.74-21.71-21.71-21.71h-42.13v-1.34
		c0-11.97-9.74-21.71-21.71-21.71H58.8c-11.97,0-21.71,9.74-21.71,21.71v73.47C37.09,139.23,46.83,148.97,58.8,148.97z
		 M253.14,76.84v73.47c0,7.89-6.42,14.31-14.31,14.31h-13.08c-2.05,0-3.7,1.66-3.7,3.7v23.83l-15.95-25.78
		c-0.68-1.09-1.87-1.75-3.15-1.75h-80.31c-7.89,0-14.31-6.42-14.31-14.31v-4.97c0-0.02,0-0.04,0-0.07c0-0.02,0-0.04,0-0.07V76.84
		c0-2.32,0.56-4.52,1.55-6.46c0.08-0.13,0.15-0.26,0.21-0.4c2.43-4.43,7.15-7.44,12.55-7.44h116.19
		C246.72,62.53,253.14,68.95,253.14,76.84z M44.5,53.79c0-7.89,6.42-14.31,14.31-14.31h116.19c7.89,0,14.31,6.42,14.31,14.31v1.34
		h-66.66c-7.52,0-14.15,3.84-18.05,9.66H61.3c-2.05,0-3.7,1.66-3.7,3.7s1.66,3.7,3.7,3.7h40.14c-0.33,1.5-0.51,3.05-0.51,4.65v9.14
		H61.3c-2.05,0-3.7,1.66-3.7,3.7s1.66,3.7,3.7,3.7h39.63v13.79H61.3c-2.05,0-3.7,1.66-3.7,3.7c0,2.05,1.66,3.7,3.7,3.7h39.63v26.98
		h-6.24c-1.28,0-2.47,0.66-3.15,1.75l-15.95,25.78v-23.83c0-2.05-1.66-3.7-3.7-3.7H58.8c-7.89,0-14.31-6.42-14.31-14.31V53.79z"/>
	
		<linearGradient id="SVGID_00000124862829169262522290000012360739189752322491_" gradientUnits="userSpaceOnUse" x1="119.7784" y1="92.1183" x2="240.8713" y2="92.1183">
		<stop  offset="0.3109" style="stop-color:#DD3E8D"/>
		<stop  offset="0.7712" style="stop-color:#B04F9A"/>
		<stop  offset="0.9923" style="stop-color:#9E54A1"/>
	</linearGradient>
	<path style="fill:url(#SVGID_00000124862829169262522290000012360739189752322491_);" d="M119.78,92.12c0,2.05,1.66,3.7,3.7,3.7
		h113.69c2.05,0,3.7-1.66,3.7-3.7s-1.66-3.7-3.7-3.7H123.48C121.44,88.41,119.78,90.07,119.78,92.12z"/>
	
		<linearGradient id="SVGID_00000034080478920850323770000003197772755546022068_" gradientUnits="userSpaceOnUse" x1="119.7784" y1="113.3137" x2="240.8713" y2="113.3137">
		<stop  offset="0.3109" style="stop-color:#DD3E8D"/>
		<stop  offset="0.7712" style="stop-color:#B04F9A"/>
		<stop  offset="0.9923" style="stop-color:#9E54A1"/>
	</linearGradient>
	<path style="fill:url(#SVGID_00000034080478920850323770000003197772755546022068_);" d="M237.17,109.61H123.48
		c-2.05,0-3.7,1.66-3.7,3.7s1.66,3.7,3.7,3.7h113.69c2.05,0,3.7-1.66,3.7-3.7S239.21,109.61,237.17,109.61z"/>
	
		<linearGradient id="SVGID_00000151524135217783151990000005660780646906355881_" gradientUnits="userSpaceOnUse" x1="119.7784" y1="134.5098" x2="240.8713" y2="134.5098">
		<stop  offset="0.3109" style="stop-color:#DD3E8D"/>
		<stop  offset="0.7712" style="stop-color:#B04F9A"/>
		<stop  offset="0.9923" style="stop-color:#9E54A1"/>
	</linearGradient>
	<path style="fill:url(#SVGID_00000151524135217783151990000005660780646906355881_);" d="M237.17,130.81H123.48
		c-2.05,0-3.7,1.66-3.7,3.7c0,2.05,1.66,3.7,3.7,3.7h113.69c2.05,0,3.7-1.66,3.7-3.7C240.87,132.46,239.21,130.81,237.17,130.81z"/>
</g>
</svg>
