<?xml version="1.0" encoding="utf-8"?>
<!-- Generator: Adobe Illustrator 27.3.1, SVG Export Plug-In . SVG Version: 6.00 Build 0)  -->
<svg version="1.1" id="Layer_1" xmlns="http://www.w3.org/2000/svg" xmlns:xlink="http://www.w3.org/1999/xlink" x="0px" y="0px"
	 viewBox="0 0 297.64 240.94" style="enable-background:new 0 0 297.64 240.94;" xml:space="preserve">
<style type="text/css">
	.st0{fill:url(#SVGID_1_);}
	.st1{fill:url(#SVGID_00000028299124765716947320000012113267595304362119_);}
	.st2{fill:url(#SVGID_00000044893446802756003240000001682122454751967366_);}
	.st3{fill:url(#SVGID_00000144328323530095716650000005102906127167571341_);}
</style>
<g>
	<linearGradient id="SVGID_1_" gradientUnits="userSpaceOnUse" x1="228.4789" y1="167.2952" x2="250.865" y2="167.2952">
		<stop  offset="0.3109" style="stop-color:#DD3E8D"/>
		<stop  offset="0.7712" style="stop-color:#B04F9A"/>
		<stop  offset="0.9923" style="stop-color:#9E54A1"/>
	</linearGradient>
	<path class="st0" d="M239.67,156.1c-6.17,0-11.19,5.02-11.19,11.19c0,6.17,5.02,11.19,11.19,11.19c6.17,0,11.19-5.02,11.19-11.19
		C250.87,161.12,245.84,156.1,239.67,156.1z M239.67,171.33c-2.23,0-4.04-1.81-4.04-4.04c0-2.23,1.81-4.04,4.04-4.04
		c2.23,0,4.04,1.81,4.04,4.04C243.71,169.52,241.9,171.33,239.67,171.33z"/>
	<g>
		
			<linearGradient id="SVGID_00000043423064680835650870000006943272641664781966_" gradientUnits="userSpaceOnUse" x1="118.4361" y1="167.2952" x2="140.8223" y2="167.2952">
			<stop  offset="0.3109" style="stop-color:#DD3E8D"/>
			<stop  offset="0.7712" style="stop-color:#B04F9A"/>
			<stop  offset="0.9923" style="stop-color:#9E54A1"/>
		</linearGradient>
		<path style="fill:url(#SVGID_00000043423064680835650870000006943272641664781966_);" d="M129.63,156.1
			c-6.17,0-11.19,5.02-11.19,11.19c0,6.17,5.02,11.19,11.19,11.19c6.17,0,11.19-5.02,11.19-11.19
			C140.82,161.12,135.8,156.1,129.63,156.1z M129.63,171.33c-2.23,0-4.04-1.81-4.04-4.04c0-2.23,1.81-4.04,4.04-4.04
			s4.04,1.81,4.04,4.04C133.67,169.52,131.86,171.33,129.63,171.33z"/>
		
			<linearGradient id="SVGID_00000021089884781556682490000010177125122367720619_" gradientUnits="userSpaceOnUse" x1="7.7673" y1="120.4724" x2="289.8705" y2="120.4724">
			<stop  offset="0.3109" style="stop-color:#DD3E8D"/>
			<stop  offset="0.7712" style="stop-color:#B04F9A"/>
			<stop  offset="0.9923" style="stop-color:#9E54A1"/>
		</linearGradient>
		<path style="fill:url(#SVGID_00000021089884781556682490000010177125122367720619_);" d="M276.83,109.99l-16.21-11.68
			c-2.03-1.46-3.73-3.4-4.92-5.6l-17.32-32.02c-5.49-10.16-16.08-16.47-27.63-16.47h-23.51h-81.46c-17.49,0-31.72,14.23-31.72,31.72
			v8H37.58c-1.98,0-3.58,1.6-3.58,3.58c0,1.98,1.6,3.58,3.58,3.58h36.49v14.77H11.34c-1.98,0-3.58,1.6-3.58,3.58
			c0,1.98,1.6,3.58,3.58,3.58h62.72v14.77H37.58c-1.98,0-3.58,1.6-3.58,3.58c0,1.98,1.6,3.58,3.58,3.58h36.49v8
			c0,11.75,6.53,22.42,17.08,27.93c0.87,0.58,2.9,1.33,9.6,2.04c2.63,13.56,14.58,23.83,28.89,23.83c13.69,0,25.23-9.4,28.51-22.08
			h29.11h16.09c0.04,0,0.08,0,0.12,0c0.01,0,2.87-0.1,7.66-0.23c3.19,12.8,14.79,22.31,28.56,22.31c14.48,0,26.54-10.51,28.98-24.31
			c3.17-0.94,6.15-2.42,8.73-4.38c7.94-6.03,12.49-15.19,12.49-25.11v-7.46C289.87,125.41,285,115.88,276.83,109.99z M129.63,189.58
			c-12.29,0-22.28-10-22.28-22.28c0-12.29,10-22.28,22.28-22.28c12.29,0,22.28,10,22.28,22.28
			C151.91,179.58,141.92,189.58,129.63,189.58z M129.63,137.86c-15.68,0-28.53,12.32-29.39,27.79c-3.75-0.45-5.11-0.83-5.43-0.94
			c-0.04-0.02-0.07-0.04-0.11-0.06c-8.31-4.23-13.48-12.55-13.48-21.71v-67c0-13.55,11.02-24.57,24.57-24.57h77.89V167.5h-24.61
			c0-0.07,0.01-0.13,0.01-0.2C159.07,151.06,145.86,137.86,129.63,137.86z M239.67,189.58c-11.27,0-20.6-8.41-22.07-19.27
			c0,0,0,0,0,0c-0.13-0.98-0.21-1.99-0.21-3.01c0-12.29,10-22.28,22.28-22.28c12.29,0,22.28,10,22.28,22.28
			C261.96,179.58,251.96,189.58,239.67,189.58z M282.72,142.93c0,7.67-3.52,14.75-9.67,19.42c-1.24,0.94-2.61,1.73-4.06,2.36
			c-1.31-15.03-13.96-26.85-29.32-26.85c-16.23,0-29.43,13.2-29.44,29.43c-4.02,0.11-6.54,0.2-6.96,0.21h-12.45V51.37h19.93
			c8.92,0,17.1,4.87,21.34,12.72l17.32,32.02c1.7,3.15,4.13,5.92,7.03,8.01l16.21,11.68c6.3,4.55,10.07,11.9,10.07,19.68V142.93z"/>
		
			<linearGradient id="SVGID_00000166677586981114670910000008500619817479259528_" gradientUnits="userSpaceOnUse" x1="198.354" y1="84.4346" x2="248.2814" y2="84.4346">
			<stop  offset="0.3109" style="stop-color:#DD3E8D"/>
			<stop  offset="0.7712" style="stop-color:#B04F9A"/>
			<stop  offset="0.9923" style="stop-color:#9E54A1"/>
		</linearGradient>
		<path style="fill:url(#SVGID_00000166677586981114670910000008500619817479259528_);" d="M242.95,97.94l-16.2-29.96
			c-3.02-5.58-8.83-9.05-15.18-9.05h-9.64c-1.98,0-3.58,1.6-3.58,3.58v43.85c0,1.98,1.6,3.58,3.58,3.58h42.77
			c1.43,0,2.72-0.85,3.29-2.17c0.56-1.32,0.29-2.84-0.7-3.88C245.56,102.07,244.1,100.07,242.95,97.94z M205.51,102.78V66.09h6.06
			c3.72,0,7.12,2.03,8.89,5.29l16.2,29.95c0.26,0.49,0.54,0.97,0.83,1.44H205.51z"/>
	</g>
</g>
</svg>
