<?xml version="1.0" encoding="utf-8"?>
<!-- Generator: Adobe Illustrator 27.3.1, SVG Export Plug-In . SVG Version: 6.00 Build 0)  -->
<svg version="1.1" id="Layer_1" xmlns="http://www.w3.org/2000/svg" xmlns:xlink="http://www.w3.org/1999/xlink" x="0px" y="0px"
	 viewBox="0 0 297.64 240.94" style="enable-background:new 0 0 297.64 240.94;" xml:space="preserve">
<style type="text/css">
	.st0{fill:url(#SVGID_1_);}
	.st1{fill:url(#SVGID_00000054244791097172315700000008594076101188338107_);}
	.st2{fill:url(#SVGID_00000117658455304816691410000012858424989524929167_);}
	.st3{fill:url(#SVGID_00000147940160166004104100000006941198656012864642_);}
</style>
<g>
	<linearGradient id="SVGID_1_" gradientUnits="userSpaceOnUse" x1="55.8683" y1="120.4724" x2="241.7695" y2="120.4724">
		<stop  offset="0.3109" style="stop-color:#DD3E8D"/>
		<stop  offset="0.7712" style="stop-color:#B04F9A"/>
		<stop  offset="0.9923" style="stop-color:#9E54A1"/>
	</linearGradient>
	<path class="st0" d="M239.23,127.3c3.41-4.18,3.39-10.22-0.06-14.37l-10.05-12.11c-0.95-1.14-1.36-2.64-1.12-4.11l2.53-15.52
		c0.87-5.32-2.18-10.55-7.23-12.42l-14.76-5.47c-1.39-0.52-2.5-1.61-3.02-3l-5.57-14.7c-1.91-5.04-7.16-8.04-12.47-7.14l-15.52,2.65
		c-1.47,0.25-2.97-0.15-4.12-1.09l-12.18-9.95c-4.18-3.41-10.22-3.39-14.37,0.06l-12.11,10.05c-1.14,0.95-2.64,1.36-4.11,1.12
		l-15.52-2.53C104.2,37.9,98.98,40.94,97.11,46l-5.47,14.76c-0.52,1.39-1.61,2.5-3,3.02l-14.7,5.57c-5.04,1.91-8.05,7.16-7.14,12.47
		l2.65,15.52c0.25,1.47-0.15,2.97-1.09,4.12l-9.95,12.18c-3.41,4.18-3.39,10.22,0.06,14.37l10.05,12.11
		c0.95,1.14,1.36,2.64,1.12,4.11l-2.53,15.52c-0.87,5.32,2.18,10.55,7.23,12.42l14.76,5.47c1.39,0.52,2.5,1.61,3.02,3l5.57,14.7
		c1.91,5.04,7.16,8.05,12.47,7.14l15.52-2.65c1.47-0.25,2.97,0.15,4.12,1.09l12.18,9.95c2.08,1.7,4.61,2.54,7.15,2.54
		c2.57,0,5.13-0.87,7.22-2.6l12.11-10.05c1.14-0.95,2.64-1.36,4.11-1.12l15.52,2.53c5.32,0.87,10.55-2.18,12.42-7.23l5.47-14.76
		c0.52-1.39,1.61-2.5,3-3.02l14.7-5.57c5.04-1.91,8.05-7.16,7.14-12.47l-2.65-15.52c-0.25-1.47,0.15-2.97,1.09-4.12L239.23,127.3z
		 M224.51,135.58c-2.07,2.53-2.94,5.83-2.39,9.05l2.65,15.52c0.41,2.42-0.95,4.81-3.25,5.67l-14.7,5.57
		c-3.06,1.16-5.46,3.58-6.6,6.65l-5.47,14.76c-0.85,2.3-3.23,3.68-5.65,3.29l-15.52-2.53c-3.23-0.53-6.52,0.37-9.04,2.46
		l-12.11,10.05c-1.89,1.57-4.64,1.58-6.54,0.03l-12.18-9.95c-2.03-1.66-4.56-2.55-7.15-2.55c-0.63,0-1.27,0.05-1.9,0.16l-15.52,2.65
		c-2.42,0.41-4.8-0.95-5.67-3.25l-5.57-14.7c-1.16-3.06-3.58-5.46-6.65-6.6l-14.76-5.47c-2.3-0.85-3.68-3.23-3.29-5.65l2.53-15.52
		c0.52-3.23-0.37-6.52-2.46-9.04l-10.05-12.11c-1.57-1.89-1.58-4.64-0.03-6.54l9.95-12.18c2.07-2.53,2.94-5.83,2.39-9.05
		l-2.65-15.52c-0.41-2.42,0.95-4.81,3.25-5.67l14.7-5.57c3.06-1.16,5.46-3.58,6.6-6.65l5.47-14.76c0.85-2.3,3.23-3.68,5.65-3.29
		l15.52,2.53c3.23,0.52,6.52-0.37,9.04-2.46l12.11-10.05c1.89-1.57,4.64-1.58,6.54-0.03l12.18,9.95c2.53,2.07,5.83,2.94,9.05,2.39
		l15.52-2.65c2.42-0.41,4.81,0.95,5.67,3.25l5.57,14.7c1.16,3.06,3.58,5.46,6.65,6.6l14.76,5.47c2.3,0.85,3.68,3.23,3.29,5.65
		l-2.53,15.52c-0.52,3.23,0.37,6.52,2.46,9.04l10.05,12.11c1.57,1.89,1.58,4.64,0.03,6.54L224.51,135.58z"/>
	
		<linearGradient id="SVGID_00000132051296130347470760000007315286441922609559_" gradientUnits="userSpaceOnUse" x1="156.6678" y1="139.2929" x2="188.1644" y2="139.2929">
		<stop  offset="0.3109" style="stop-color:#DD3E8D"/>
		<stop  offset="0.7712" style="stop-color:#B04F9A"/>
		<stop  offset="0.9923" style="stop-color:#9E54A1"/>
	</linearGradient>
	<path style="fill:url(#SVGID_00000132051296130347470760000007315286441922609559_);" d="M172.17,119.86
		c-5.05,0-8.89,1.83-11.54,5.49c-2.64,3.66-3.96,8.13-3.96,13.42c0,6.65,1.48,11.64,4.44,14.97c2.96,3.33,6.66,4.99,11.11,4.99
		c4.51,0,8.3-1.68,11.36-5.04c3.06-3.36,4.59-8.15,4.59-14.37c0-6.39-1.51-11.23-4.54-14.52
		C180.6,121.51,176.78,119.86,172.17,119.86z M178.06,149.6c-1.49,1.94-3.39,2.91-5.69,2.91c-2.21,0-4.06-0.97-5.57-2.91
		c-1.5-1.94-2.26-5.25-2.26-9.93c0-5.18,0.74-8.74,2.23-10.68c1.49-1.94,3.37-2.91,5.64-2.91c2.24,0,4.11,0.96,5.62,2.88
		c1.5,1.92,2.26,5.26,2.26,10.01C180.29,144.12,179.55,147.66,178.06,149.6z"/>
	
		<linearGradient id="SVGID_00000106867188429966965130000003490265865322451080_" gradientUnits="userSpaceOnUse" x1="124.8703" y1="119.9837" x2="172.4162" y2="119.9837">
		<stop  offset="0.3109" style="stop-color:#DD3E8D"/>
		<stop  offset="0.7712" style="stop-color:#B04F9A"/>
		<stop  offset="0.9923" style="stop-color:#9E54A1"/>
	</linearGradient>
	<polygon style="fill:url(#SVGID_00000106867188429966965130000003490265865322451080_);" points="165.09,81.24 124.87,158.73 
		132.34,158.73 172.42,81.24 	"/>
	
		<linearGradient id="SVGID_00000083788633106312029000000008447290998772377515_" gradientUnits="userSpaceOnUse" x1="109.122" y1="100.6745" x2="140.5685" y2="100.6745">
		<stop  offset="0.3109" style="stop-color:#DD3E8D"/>
		<stop  offset="0.7712" style="stop-color:#B04F9A"/>
		<stop  offset="0.9923" style="stop-color:#9E54A1"/>
	</linearGradient>
	<path style="fill:url(#SVGID_00000083788633106312029000000008447290998772377515_);" d="M135.98,115.07
		c3.06-3.36,4.59-8.15,4.59-14.37c0-6.39-1.51-11.23-4.54-14.52c-3.03-3.29-6.85-4.94-11.46-4.94c-5.02,0-8.84,1.84-11.49,5.52
		c-2.64,3.68-3.96,8.14-3.96,13.39c0,6.69,1.48,11.69,4.44,15c2.96,3.31,6.66,4.97,11.11,4.97
		C129.15,120.11,132.92,118.43,135.98,115.07z M130.46,110.98c-1.49,1.94-3.37,2.91-5.64,2.91c-2.21,0-4.06-0.96-5.57-2.88
		c-1.5-1.92-2.26-5.24-2.26-9.96c0-5.18,0.74-8.74,2.23-10.68c1.49-1.94,3.35-2.91,5.59-2.91c2.24,0,4.11,0.96,5.62,2.88
		c1.5,1.92,2.26,5.26,2.26,10.01C132.69,105.5,131.95,109.04,130.46,110.98z"/>
</g>
</svg>
