<?xml version="1.0" encoding="utf-8"?>
<!-- Generator: Adobe Illustrator 27.3.1, SVG Export Plug-In . SVG Version: 6.00 Build 0)  -->
<svg version="1.1" id="Layer_1" xmlns="http://www.w3.org/2000/svg" xmlns:xlink="http://www.w3.org/1999/xlink" x="0px" y="0px"
	 viewBox="0 0 297.64 240.94" style="enable-background:new 0 0 297.64 240.94;" xml:space="preserve">
<style type="text/css">
	.st0{fill:url(#SVGID_1_);}
	.st1{fill:url(#SVGID_00000005969372115227770450000012177454021667274939_);}
	.st2{fill:url(#SVGID_00000116219397977402770030000004052069794706213564_);}
	.st3{fill:url(#SVGID_00000034084704849725699730000005470421053009563071_);}
</style>
<g>
	<linearGradient id="SVGID_1_" gradientUnits="userSpaceOnUse" x1="116.7182" y1="117.8979" x2="180.9214" y2="117.8979">
		<stop  offset="0.3109" style="stop-color:#DD3E8D"/>
		<stop  offset="0.7712" style="stop-color:#B04F9A"/>
		<stop  offset="0.9923" style="stop-color:#9E54A1"/>
	</linearGradient>
	<path class="st0" d="M127.09,156.45h43.47c5.72,0,10.37-4.65,10.37-10.37v-34.64c0-5.72-4.65-10.37-10.37-10.37h-1.38
		c-1.31-12.39-9.63-21.73-19.85-21.73c-10.22,0-18.54,9.34-19.85,21.73h-2.39c-5.72,0-10.37,4.65-10.37,10.37v34.64
		C116.72,151.8,121.37,156.45,127.09,156.45z M149.33,85.14c6.93,0,12.81,6.92,14.01,15.94h-28.02
		C136.52,92.06,142.4,85.14,149.33,85.14z M122.51,111.45c0-2.52,2.05-4.57,4.57-4.57h5.11h34.26h4.1c2.52,0,4.57,2.05,4.57,4.57
		v34.64c0,2.52-2.05,4.57-4.57,4.57h-43.47c-2.52,0-4.57-2.05-4.57-4.57V111.45z"/>
	
		<linearGradient id="SVGID_00000152262788313416612710000006096429844207168692_" gradientUnits="userSpaceOnUse" x1="139.031" y1="129.5284" x2="158.6941" y2="129.5284">
		<stop  offset="0.3109" style="stop-color:#DD3E8D"/>
		<stop  offset="0.7712" style="stop-color:#B04F9A"/>
		<stop  offset="0.9923" style="stop-color:#9E54A1"/>
	</linearGradient>
	<path style="fill:url(#SVGID_00000152262788313416612710000006096429844207168692_);" d="M142.68,130.76v8.83
		c0,3.41,2.77,6.18,6.18,6.18c3.41,0,6.18-2.77,6.18-6.18v-8.83c2.31-1.85,3.65-4.62,3.65-7.64c0-5.42-4.41-9.83-9.83-9.83
		c-5.42,0-9.83,4.41-9.83,9.83C139.03,126.13,140.37,128.9,142.68,130.76z M148.86,117.92c2.86,0,5.19,2.33,5.19,5.19
		c0,1.83-0.95,3.5-2.53,4.45c-0.7,0.42-1.12,1.17-1.12,1.99c0,0.02,0,0.05,0,0.07v9.96c0,0.84-0.71,1.54-1.54,1.54
		c-0.84,0-1.54-0.71-1.54-1.54v-9.96c0-0.02,0-0.05,0-0.07c0-0.81-0.43-1.57-1.12-1.99c-1.58-0.95-2.53-2.62-2.53-4.45
		C143.67,120.25,146,117.92,148.86,117.92z"/>
	
		<linearGradient id="SVGID_00000132055325533245060130000008055393819275489429_" gradientUnits="userSpaceOnUse" x1="52.0909" y1="120.4724" x2="245.5469" y2="120.4724">
		<stop  offset="0.3109" style="stop-color:#DD3E8D"/>
		<stop  offset="0.7712" style="stop-color:#B04F9A"/>
		<stop  offset="0.9923" style="stop-color:#9E54A1"/>
	</linearGradient>
	<path style="fill:url(#SVGID_00000132055325533245060130000008055393819275489429_);" d="M132.7,220.55
		c5.97,3.35,11.18,4.84,16.16,4.84c7.51,0,14.47-3.39,22.65-8.86c25.76-17.22,46.11-41.99,58.85-71.62
		c12.08-28.09,17.11-59.75,14.53-91.55c-0.08-0.94-0.54-1.82-1.27-2.42c-0.74-0.6-1.68-0.87-2.62-0.75
		c-33.06,4.11-67.18-8.71-89.04-33.45c-0.66-0.75-1.61-1.18-2.61-1.18s-1.95,0.43-2.61,1.18c-22.11,25.03-56.58,37.8-89.98,33.33
		c-0.94-0.12-1.9,0.14-2.64,0.74c-0.74,0.6-1.21,1.47-1.28,2.42c-3.56,43.61,5.54,82.38,27.06,115.24
		C90.52,184.67,108.29,206.86,132.7,220.55z M59.51,57.39c16.4,1.62,33.2-0.54,48.81-6.31c15.63-5.77,29.74-15.03,41.03-26.9
		c11.17,11.75,25.12,20.95,40.55,26.72c15.43,5.78,32.05,8.03,48.31,6.57c3.94,62.91-22.89,121.39-70.57,153.27
		c-12.05,8.06-19.47,10.51-31.54,3.74c-23.18-13-40.19-34.27-50.38-49.83C65.66,134.03,56.85,97.95,59.51,57.39z"/>
	
		<linearGradient id="SVGID_00000176727514347341210420000003785005745945210007_" gradientUnits="userSpaceOnUse" x1="68.3241" y1="123.694" x2="229.3156" y2="123.694">
		<stop  offset="0.3109" style="stop-color:#DD3E8D"/>
		<stop  offset="0.7712" style="stop-color:#B04F9A"/>
		<stop  offset="0.9923" style="stop-color:#9E54A1"/>
	</linearGradient>
	<path style="fill:url(#SVGID_00000176727514347341210420000003785005745945210007_);" d="M140.64,206.4c3.3,1.85,6,2.75,8.25,2.75
		c3.16,0,7.1-1.77,13.6-6.11c23.14-15.47,41.46-37.79,52.96-64.54c8.94-20.78,13.73-44.24,13.87-67.84c0.01-1.9-1.5-3.46-3.4-3.5
		c-27.31-0.59-53.7-10.56-74.31-28.09c-1.3-1.1-3.21-1.11-4.51,0c-20.89,17.76-47.64,27.75-75.34,28.11
		c-1.9,0.02-3.43,1.57-3.43,3.47c-0.11,33.36,8.35,63.28,25.15,88.93C103.1,174.26,119.09,194.31,140.64,206.4z M149.35,46.24
		c20.59,16.68,46.27,26.45,72.96,27.76c-0.54,21.53-5.1,42.81-13.25,61.75c-10.97,25.51-28.41,46.78-50.44,61.51
		c-6.43,4.3-8.86,4.94-9.73,4.94c-0.36,0-1.77-0.13-4.85-1.86c-20.32-11.4-35.55-30.53-44.74-44.57
		c-15.48-23.63-23.54-51.11-24-81.73C102.39,72.94,128.46,63.16,149.35,46.24z"/>
</g>
</svg>
