<?xml version="1.0" encoding="utf-8"?>
<!-- Generator: Adobe Illustrator 27.3.1, SVG Export Plug-In . SVG Version: 6.00 Build 0)  -->
<svg version="1.0" id="Layer_1" xmlns="http://www.w3.org/2000/svg" xmlns:xlink="http://www.w3.org/1999/xlink" x="0px" y="0px"
	 viewBox="0 0 16 16" style="enable-background:new 0 0 16 16;" xml:space="preserve">
<style type="text/css">
	.st0{fill:#202545;}
	.st1{fill:#096260;}
	.st2{fill:url(#SVGID_1_);}
	.st3{fill:url(#SVGID_00000052102287973619618310000006228175294147362436_);}
	
		.st4{fill:#FFFFFF;stroke:url(#SVGID_00000158008207456434290090000012115859263586663299_);stroke-width:0.02;stroke-miterlimit:10;}
	.st5{fill:#FFFFFF;}
	.st6{fill:url(#SVGID_00000034078332961893996070000000785798823760237477_);}
</style>
<path class="st0" d="M8,15.56L8,15.56c-4.18,0-7.56-3.39-7.56-7.56l0,0c0-4.18,3.39-7.56,7.56-7.56l0,0c4.18,0,7.56,3.39,7.56,7.56
	l0,0C15.56,12.18,12.18,15.56,8,15.56z"/>
<g>
	<path class="st1" d="M11.71,9.24c-0.12,0.07-0.24,0.14-0.38,0.19c-0.26,0.1-0.53,0.14-0.81,0.12c-0.39-0.02-0.75-0.1-1.11-0.22
		C9.19,9.24,8.99,9.16,8.78,9.09c-0.02,0-0.02-0.02-0.03-0.02C8.71,9.05,8.71,9.04,8.71,9c0.02-0.05,0.05-0.05,0.1-0.05
		c0.15,0.03,0.31,0.07,0.48,0.1c0.34,0.09,0.7,0.17,1.08,0.15c0.31,0,0.62-0.05,0.89-0.21c0.15-0.09,0.29-0.19,0.39-0.29L11.71,9.24
		z"/>
	
		<linearGradient id="SVGID_1_" gradientUnits="userSpaceOnUse" x1="4.6746" y1="12.1723" x2="9.1898" y2="5.8679" gradientTransform="matrix(1 0 0 -1 0 16)">
		<stop  offset="0.0793" style="stop-color:#FF6CAB"/>
		<stop  offset="0.9399" style="stop-color:#7366FF"/>
	</linearGradient>
	<path class="st2" d="M11.28,5.28c-0.27-0.1-0.58-0.15-0.89-0.14c-0.41,0-0.77,0.12-1.11,0.33C9.02,5.63,8.82,5.82,8.64,6.06
		C8.46,6.3,8.32,6.57,8.2,6.84C8.08,7.15,7.98,7.48,7.89,7.79C7.72,8.37,7.55,8.93,7.36,9.52c-0.09,0.26-0.15,0.51-0.24,0.77
		c-0.09,0.26-0.21,0.51-0.38,0.75c-0.1,0.15-0.24,0.29-0.39,0.39c-0.17,0.12-0.38,0.21-0.6,0.24c-0.53,0.09-0.99-0.07-1.39-0.45
		c-0.05-0.05-0.1-0.1-0.14-0.15l0.26-2.35C4.52,8.69,4.55,8.68,4.6,8.64c0.24-0.17,0.5-0.26,0.79-0.29c0.36-0.03,0.7,0,1.05,0.07
		c0.26,0.05,0.5,0.12,0.75,0.17c0.02,0,0.03,0,0.05,0c0.03,0,0.05-0.02,0.07-0.05c0.02-0.03,0-0.05-0.03-0.07
		c-0.1-0.02-0.21-0.05-0.29-0.09C6.73,8.28,6.45,8.2,6.18,8.11C5.87,8.03,5.53,7.99,5.2,8.01C4.96,8.03,4.74,8.08,4.53,8.18
		l0.31-2.81c0.03-0.39,0.38-0.69,0.77-0.69h4.92C10.89,4.68,11.21,4.94,11.28,5.28z"/>
	<path class="st1" d="M4.58,8.64c-0.03,0.03-0.07,0.05-0.1,0.09l0.07-0.55c0.21-0.1,0.43-0.15,0.67-0.17
		c0.31-0.02,0.65,0.02,0.96,0.1C6.45,8.2,6.73,8.28,6.98,8.39c0.09,0.03,0.17,0.07,0.27,0.1c0.03,0.02,0.05,0.03,0.03,0.07
		c0,0.03-0.03,0.05-0.07,0.05c-0.02,0-0.03,0-0.05,0c-0.26-0.05-0.5-0.12-0.75-0.17c-0.34-0.07-0.69-0.1-1.05-0.07
		C5.08,8.39,4.82,8.47,4.58,8.64z"/>
	
		<linearGradient id="SVGID_00000016789238061297861060000017936889746337473705_" gradientUnits="userSpaceOnUse" x1="5.8468" y1="9.3081" x2="10.7207" y2="3.0187" gradientTransform="matrix(1 0 0 -1 0 16)">
		<stop  offset="0.3109" style="stop-color:#DC3D8D"/>
		<stop  offset="0.6269" style="stop-color:#C445A4"/>
		<stop  offset="0.9923" style="stop-color:#AC4CBA"/>
	</linearGradient>
	<path style="fill:url(#SVGID_00000016789238061297861060000017936889746337473705_);" d="M11.23,12.72H4.91
		c-0.45,0-0.79-0.36-0.77-0.79c0.07,0.05,0.14,0.1,0.21,0.14c0.36,0.22,0.75,0.34,1.17,0.36c0.31,0.02,0.62-0.05,0.91-0.15
		c0.45-0.17,0.77-0.46,1.03-0.86c0.19-0.33,0.34-0.65,0.46-0.99c0.09-0.27,0.17-0.57,0.27-0.84c0.17-0.62,0.36-1.23,0.55-1.85
		C8.82,7.46,8.9,7.17,9.02,6.91c0.12-0.26,0.27-0.5,0.5-0.69c0.27-0.24,0.6-0.36,0.96-0.36c0.26,0,0.51,0.05,0.75,0.15
		c0.05,0.02,0.1,0.05,0.15,0.09l0.29,2.6C11.56,8.83,11.42,8.92,11.28,9c-0.31,0.15-0.6,0.21-0.91,0.21C10,9.21,9.66,9.14,9.3,9.05
		C9.12,9.04,8.97,9,8.82,8.95c-0.05-0.02-0.09,0-0.1,0.03c0,0.03,0,0.05,0.03,0.07c0.02,0,0.02,0.02,0.03,0.02
		c0.21,0.09,0.41,0.15,0.63,0.24c0.36,0.14,0.72,0.22,1.11,0.24c0.27,0.02,0.55-0.03,0.81-0.12c0.14-0.05,0.26-0.1,0.38-0.19
		l0.29,2.6C12.05,12.31,11.69,12.72,11.23,12.72z"/>
	<path class="st1" d="M8.73,7.73C8.54,8.35,8.35,8.97,8.18,9.57c-0.09,0.29-0.19,0.57-0.27,0.86c-0.12,0.34-0.27,0.69-0.48,0.99
		c-0.26,0.39-0.6,0.69-1.03,0.86c-0.29,0.12-0.58,0.17-0.91,0.15c-0.41-0.02-0.81-0.14-1.17-0.36c-0.07-0.05-0.14-0.09-0.21-0.14
		c0-0.02,0-0.05,0-0.07l0.09-0.77c0.05,0.03,0.1,0.09,0.15,0.14c0.39,0.38,0.86,0.53,1.39,0.45c0.22-0.03,0.41-0.1,0.6-0.24
		c0.15-0.1,0.29-0.24,0.39-0.39c0.17-0.24,0.29-0.5,0.38-0.75c0.09-0.26,0.15-0.5,0.24-0.75C7.53,8.95,7.7,8.39,7.89,7.8
		C7.98,7.48,8.08,7.15,8.2,6.84C8.32,6.57,8.46,6.3,8.64,6.06c0.17-0.24,0.38-0.43,0.63-0.58C9.62,5.27,10,5.15,10.39,5.15
		c0.31,0,0.62,0.05,0.89,0.15c0,0.02,0.02,0.05,0.02,0.09l0.09,0.74c-0.05-0.03-0.1-0.05-0.15-0.09c-0.24-0.12-0.5-0.17-0.75-0.17
		c-0.36,0-0.69,0.12-0.96,0.36C9.3,6.42,9.16,6.66,9.02,6.91C8.9,7.17,8.82,7.46,8.73,7.73z"/>
	
		<linearGradient id="SVGID_00000001660979738847459510000017326052201363781563_" gradientUnits="userSpaceOnUse" x1="3.2678" y1="7.2103" x2="12.7433" y2="7.2103" gradientTransform="matrix(1 0 0 -1 0 16)">
		<stop  offset="0" style="stop-color:#F35FFF"/>
		<stop  offset="1" style="stop-color:#8F43B5"/>
	</linearGradient>
	
		<path style="fill:#FFFFFF;stroke:url(#SVGID_00000001660979738847459510000017326052201363781563_);stroke-width:0.02;stroke-miterlimit:10;" d="
		M12.72,7.39c0,0.53-0.17,0.99-0.51,1.42c-0.14,0.17-0.31,0.33-0.5,0.45c-0.12,0.07-0.24,0.14-0.38,0.19
		c-0.26,0.09-0.53,0.12-0.81,0.1c-0.39-0.02-0.75-0.1-1.11-0.22C9.19,9.24,8.99,9.16,8.78,9.09c-0.02,0-0.02-0.02-0.03-0.02
		C8.71,9.05,8.71,9.04,8.71,9c0.02-0.05,0.05-0.05,0.1-0.05c0.15,0.03,0.31,0.07,0.48,0.1c0.34,0.09,0.7,0.17,1.08,0.15
		c0.31,0,0.62-0.05,0.89-0.21c0.15-0.09,0.29-0.19,0.39-0.29c0.12-0.12,0.22-0.26,0.29-0.41c0.29-0.62,0.26-1.22-0.14-1.78
		c-0.12-0.17-0.27-0.31-0.45-0.41c-0.05-0.03-0.1-0.05-0.15-0.09c-0.22-0.1-0.48-0.15-0.74-0.15c-0.36,0-0.69,0.12-0.96,0.36
		C9.3,6.42,9.16,6.66,9.02,6.91C8.9,7.17,8.82,7.46,8.73,7.73C8.54,8.35,8.35,8.97,8.18,9.57c-0.09,0.29-0.19,0.57-0.27,0.86
		c-0.12,0.34-0.27,0.69-0.48,0.99c-0.26,0.39-0.6,0.69-1.03,0.86c-0.29,0.12-0.58,0.17-0.91,0.15c-0.41-0.02-0.81-0.14-1.17-0.36
		c-0.07-0.05-0.14-0.09-0.21-0.14c-0.21-0.17-0.39-0.36-0.53-0.6c-0.1-0.15-0.17-0.33-0.22-0.5c-0.07-0.24-0.1-0.5-0.09-0.75
		c0-0.26,0.05-0.5,0.15-0.74c0.19-0.48,0.51-0.86,0.98-1.11C4.45,8.21,4.5,8.2,4.53,8.16c0.21-0.1,0.43-0.15,0.67-0.17
		c0.33,0,0.67,0.03,0.98,0.12C6.45,8.2,6.73,8.28,6.98,8.39c0.09,0.03,0.17,0.07,0.27,0.1c0.03,0.02,0.05,0.03,0.03,0.07
		c0,0.03-0.03,0.05-0.07,0.05c-0.02,0-0.03,0-0.05,0c-0.26-0.05-0.5-0.12-0.75-0.17c-0.34-0.07-0.69-0.1-1.05-0.07
		c-0.29,0.02-0.55,0.1-0.79,0.27c-0.03,0.03-0.07,0.05-0.1,0.09C4.17,8.99,3.97,9.31,3.88,9.7c-0.1,0.51,0,0.99,0.33,1.39
		c0.05,0.03,0.1,0.09,0.15,0.14c0.39,0.38,0.86,0.53,1.39,0.45c0.22-0.03,0.41-0.1,0.6-0.24c0.15-0.1,0.29-0.24,0.39-0.39
		c0.17-0.24,0.29-0.5,0.38-0.75c0.09-0.26,0.15-0.5,0.24-0.75C7.53,8.95,7.7,8.39,7.89,7.8C7.98,7.48,8.08,7.15,8.2,6.84
		C8.32,6.57,8.46,6.3,8.64,6.06c0.17-0.24,0.38-0.43,0.63-0.58C9.62,5.27,10,5.15,10.39,5.15c0.31,0,0.62,0.05,0.89,0.15
		c0.21,0.07,0.38,0.19,0.57,0.31c0.31,0.24,0.53,0.53,0.69,0.87C12.67,6.78,12.72,7.08,12.72,7.39z"/>
	<circle class="st5" cx="8.61" cy="5.18" r="0.21"/>
	<circle class="st5" cx="7.39" cy="5.18" r="0.21"/>
	<g>
		
			<linearGradient id="SVGID_00000023276503412658624900000006662365070888106155_" gradientUnits="userSpaceOnUse" x1="7.9978" y1="10.7307" x2="7.9258" y2="13.0964" gradientTransform="matrix(1 0 0 -1 0 16)">
			<stop  offset="0" style="stop-color:#AC4CBA"/>
			<stop  offset="0.4163" style="stop-color:#9445B6"/>
			<stop  offset="1" style="stop-color:#6C39B0"/>
		</linearGradient>
		<path style="fill:url(#SVGID_00000023276503412658624900000006662365070888106155_);" d="M8.61,5.27c-0.05,0-0.09-0.03-0.09-0.09
			V3.97c0-0.29-0.24-0.53-0.53-0.53S7.46,3.67,7.46,3.97v1.22c0,0.05-0.03,0.09-0.09,0.09S7.29,5.23,7.29,5.18V3.97
			c0-0.38,0.31-0.69,0.69-0.69c0.38,0,0.69,0.31,0.69,0.69v1.22C8.7,5.23,8.64,5.27,8.61,5.27z"/>
	</g>
</g>
</svg>
