<?xml version="1.0" encoding="utf-8"?>
<!-- Generator: Adobe Illustrator 27.3.1, SVG Export Plug-In . SVG Version: 6.00 Build 0)  -->
<svg version="1.1" id="Layer_1" xmlns="http://www.w3.org/2000/svg" xmlns:xlink="http://www.w3.org/1999/xlink" x="0px" y="0px"
	 viewBox="0 0 120 45" style="enable-background:new 0 0 120 45;" xml:space="preserve">
<style type="text/css">
	.st0{fill:#FFFFFF;}
	.st1{fill:url(#SVGID_1_);}
	.st2{fill:url(#SVGID_00000150104402415756120190000004825064745072292783_);}
	.st3{fill:#096260;}
	.st4{fill:url(#SVGID_00000157281376707415630130000001871155311372069311_);}
	.st5{fill:url(#SVGID_00000052075227181480108470000003242561307152016020_);}
	
		.st6{fill:#FFFFFF;stroke:url(#SVGID_00000005238506908495388540000007047538196086572950_);stroke-width:0.2;stroke-miterlimit:10;}
	.st7{fill:url(#SVGID_00000097502205501716876010000004776354722079050173_);}
</style>
<g>
	<path class="st0" d="M38.2,17.1c0.2,0,0.3,0.1,0.3,0.3v1.2c0,0.2-0.1,0.3-0.3,0.3h-6.3c-0.5,0-0.7,0.3-0.7,0.7V20
		c0,0.5,0.2,0.7,0.6,0.7h4.7c1.4,0,2.2,0.8,2.2,2.1v1c0,1.2-0.7,2-2.2,2h-6.9c-0.2,0-0.3-0.1-0.3-0.3v-1.2c0-0.2,0.1-0.3,0.3-0.3
		h6.5c0.5,0,0.7-0.3,0.7-0.7v-0.5c0-0.5-0.2-0.7-0.7-0.7h-4.7c-1.4,0-2.2-0.8-2.2-2.1v-0.9c0-1.2,0.7-2,2.2-2H38.2z"/>
	<path class="st0" d="M46.5,19c2.2,0,3,0.7,3,2.5v1.8c0,1.8-0.7,2.5-3,2.5H43c-2.2,0-3-0.7-3-2.5v-1.8c0-1.8,0.7-2.5,3-2.5H46.5z
		 M41.8,23c0,1,0.3,1.4,1.4,1.4h3.2c1.1,0,1.4-0.3,1.4-1.4v-1.2c0-1-0.3-1.4-1.4-1.4h-3.2c-1.1,0-1.4,0.3-1.4,1.4V23z"/>
	<path class="st0" d="M52.4,16.5c0.2,0,0.3,0.1,0.3,0.3V19h4.7c2.2,0,3,0.7,3,2.5v1.8c0,1.8-0.7,2.5-3,2.5h-3.5c-2.2,0-3-0.7-3-2.5
		v-6.6c0-0.2,0.1-0.3,0.3-0.3H52.4z M52.7,20.5V23c0,1,0.3,1.4,1.4,1.4h3.1c1.1,0,1.4-0.3,1.4-1.4v-1.1c0-1-0.3-1.4-1.4-1.4
		C57.2,20.5,52.7,20.5,52.7,20.5z"/>
	<path class="st0" d="M68.9,17.1c1.9,0,2.7,0.9,2.7,2.6v0.7c0,1.4-0.6,2.3-1.9,2.5l2.1,2.6c0.1,0.1,0.1,0.3-0.2,0.3h-1.6
		c-0.2,0-0.3,0-0.3-0.2l-2-2.6h-4v2.5c0,0.2-0.1,0.3-0.3,0.3h-1.3c-0.2,0-0.3-0.1-0.3-0.3v-8.1c0-0.2,0.1-0.4,0.4-0.4
		C62.2,17.1,68.9,17.1,68.9,17.1z M63.8,21.6h4.8c0.8,0,1.2-0.4,1.2-1.1v-0.5c0-0.8-0.3-1.1-1.2-1.1H64c-0.1,0-0.2,0-0.2,0.1V21.6z"
		/>
	<path class="st0" d="M79.1,19c2.2,0,3,0.7,3,2.5v1.8c0,1.8-0.7,2.5-3,2.5h-3.5c-2.2,0-3-0.7-3-2.5v-1.8c0-1.8,0.7-2.5,3-2.5H79.1z
		 M74.4,23c0,1,0.3,1.4,1.4,1.4H79c1.1,0,1.4-0.3,1.4-1.4v-1.2c0-1-0.3-1.4-1.4-1.4h-3.2c-1.1,0-1.4,0.3-1.4,1.4V23z"/>
	<path class="st0" d="M85.1,16.5c0.2,0,0.3,0.1,0.3,0.3v4.9h2.3c0.7,0,0.9-0.1,1.2-0.5l1.4-2c0.1-0.1,0.2-0.2,0.4-0.2h1.4
		c0.2,0,0.2,0.2,0.1,0.3l-1.6,2.2c-0.2,0.3-0.5,0.6-0.8,0.8c0.3,0.2,0.6,0.5,0.9,0.8l1.8,2.4c0.1,0.1,0,0.3-0.2,0.3h-1.4
		c-0.2,0-0.3,0-0.4-0.2L89,23.6c-0.3-0.4-0.6-0.5-1.2-0.5h-2.4v2.5c0,0.2-0.1,0.3-0.3,0.3h-1.2c-0.2,0-0.3-0.1-0.3-0.3v-8.8
		c0-0.2,0.1-0.3,0.3-0.3L85.1,16.5L85.1,16.5z"/>
	<path class="st0" d="M99.6,19c2.2,0,3,0.7,3,2.5v1.8c0,1.8-0.7,2.5-3,2.5h-3.5c-2.2,0-3-0.7-3-2.5v-1.8c0-1.8,0.7-2.5,3-2.5H99.6z
		 M94.9,23c0,1,0.3,1.4,1.4,1.4h3.2c1.1,0,1.4-0.3,1.4-1.4v-1.2c0-1-0.3-1.4-1.4-1.4h-3.2c-1.1,0-1.4,0.3-1.4,1.4V23z"/>
	<path class="st0" d="M113.4,19c2.2,0,3,0.7,3,2.5v4c0,0.2-0.1,0.3-0.3,0.3h-1.2c-0.2,0-0.3-0.1-0.3-0.3V22c0-1-0.2-1.4-1.3-1.4
		h-2.2v5c0,0.2-0.1,0.3-0.3,0.3h-1.2c-0.2,0-0.3-0.1-0.3-0.3v-5h-2.1c-1.1,0-1.4,0.3-1.4,1.4v3.6c0,0.2-0.1,0.3-0.3,0.3h-1.2
		c-0.2,0-0.3-0.1-0.3-0.3v-4c0-1.8,0.7-2.5,3-2.5C107,19,113.4,19,113.4,19z"/>
</g>
<g>
	<path class="st0" d="M57.5,28.6c0.1,0,0.1,0,0.1,0.1v1.8c0,0.5,0.1,0.6,0.6,0.6H60c0.1,0,0.1,0,0.1,0.1v0.5c0,0.1,0,0.1-0.1,0.1
		h-1.9c-0.9,0-1.3-0.3-1.3-1.2v-1.9c0-0.1,0-0.1,0.1-0.1C57,28.6,57.5,28.6,57.5,28.6z"/>
	<path class="st0" d="M62.9,29.3c0.6,0,0.8,0.2,0.8,0.8v0.4c0,0.2-0.1,0.3-0.3,0.3h-2.3v0.1c0,0.3,0.1,0.4,0.5,0.4h1.9
		c0,0,0.1,0,0.1,0.1v0.4c0,0,0,0.1-0.1,0.1h-2c-0.8,0-1.1-0.3-1.1-0.9v-0.7c0-0.7,0.3-0.9,1.1-0.9L62.9,29.3L62.9,29.3z M61.2,30.3
		H63c0,0,0.1,0,0.1-0.1v-0.2c0-0.2-0.1-0.3-0.3-0.3h-1.2c-0.4,0-0.5,0.1-0.5,0.4V30.3z"/>
	<path class="st0" d="M64.7,29.3v-0.6c0-0.1,0-0.1,0.1-0.1h0.4c0.1,0,0.1,0,0.1,0.1v0.6h0.8c0.1,0,0.1,0,0.1,0.1v0.4
		c0,0,0,0.1-0.1,0.1h-0.8v1.1c0,0.2,0.1,0.4,0.4,0.4h0.4c0.1,0,0.1,0,0.1,0.1v0.4c0,0,0,0.1-0.1,0.1h-0.6c-0.7,0-0.9-0.3-0.9-0.9
		v-1.1h-0.4c-0.1,0-0.1,0-0.1-0.1v-0.4c0,0,0-0.1,0.1-0.1L64.7,29.3L64.7,29.3z"/>
	<path class="st0" d="M67.3,28.4c0.1,0,0.1,0,0.1,0.1l-0.1,1.2c0,0.1,0,0.1-0.1,0.1h-0.2c-0.1,0-0.1,0-0.1-0.1l-0.1-1.2
		c0-0.1,0-0.1,0.1-0.1C66.8,28.4,67.3,28.4,67.3,28.4z"/>
	<path class="st0" d="M70.8,29.3C70.9,29.3,70.9,29.3,70.8,29.3l0.1,0.5c0,0,0,0.1-0.1,0.1h-2.1c-0.2,0-0.2,0.1-0.2,0.2v0.1
		c0,0.1,0.1,0.2,0.2,0.2h1.5c0.5,0,0.7,0.2,0.7,0.6v0.3c0,0.4-0.2,0.6-0.7,0.6H68c-0.1,0-0.1,0-0.1-0.1v-0.4c0,0,0-0.1,0.1-0.1h2.2
		c0.2,0,0.2-0.1,0.2-0.2V31c0-0.1-0.1-0.2-0.2-0.2h-1.5c-0.5,0-0.7-0.2-0.7-0.6v-0.2c0-0.4,0.2-0.6,0.7-0.6L70.8,29.3L70.8,29.3z"/>
	<path class="st0" d="M76.2,29.3C76.2,29.3,76.3,29.3,76.2,29.3l0.1,0.5c0,0,0,0.1-0.1,0.1h-2.1c-0.2,0-0.2,0.1-0.2,0.2v0.1
		c0,0.1,0.1,0.2,0.2,0.2h1.5c0.5,0,0.7,0.2,0.7,0.6v0.3c0,0.4-0.2,0.6-0.7,0.6h-2.3c-0.1,0-0.1,0-0.1-0.1v-0.4c0,0,0-0.1,0.1-0.1
		h2.2c0.2,0,0.2-0.1,0.2-0.2V31c0-0.1-0.1-0.2-0.2-0.2H74c-0.5,0-0.7-0.2-0.7-0.6v-0.2c0-0.4,0.2-0.6,0.7-0.6L76.2,29.3L76.2,29.3z"
		/>
	<path class="st0" d="M77.6,28.4c0.1,0,0.1,0,0.1,0.1v0.8h1.7c0.8,0,1.1,0.3,1.1,0.9v1.5c0,0.1,0,0.1-0.1,0.1h-0.4
		c-0.1,0-0.1,0-0.1-0.1v-1.3c0-0.4-0.1-0.5-0.5-0.5h-1.7v1.8c0,0.1,0,0.1-0.1,0.1h-0.4c-0.1,0-0.1,0-0.1-0.1v-3.2
		c0-0.1,0-0.1,0.1-0.1L77.6,28.4L77.6,28.4z"/>
	<path class="st0" d="M83.5,29.3c0.8,0,1.1,0.3,1.1,0.9v0.7c0,0.7-0.3,0.9-1.1,0.9h-1.3c-0.8,0-1.1-0.3-1.1-0.9v-0.7
		c0-0.7,0.3-0.9,1.1-0.9H83.5z M81.8,30.8c0,0.4,0.1,0.5,0.5,0.5h1.2c0.4,0,0.5-0.1,0.5-0.5v-0.4c0-0.4-0.1-0.5-0.5-0.5h-1.2
		c-0.4,0-0.5,0.1-0.5,0.5V30.8z"/>
	<path class="st0" d="M87.6,29.3c0.8,0,1.1,0.3,1.1,0.9v0.7c0,0.7-0.3,0.9-1.1,0.9h-1.7v0.9c0,0.1,0,0.1-0.1,0.1h-0.4
		c-0.1,0-0.1,0-0.1-0.1v-2.5c0-0.7,0.3-0.9,1.1-0.9H87.6z M85.9,31.3h1.7c0.4,0,0.5-0.1,0.5-0.5v-0.4c0-0.4-0.1-0.5-0.5-0.5h-1.2
		c-0.4,0-0.5,0.1-0.5,0.5V31.3z"/>
</g>
<linearGradient id="SVGID_1_" gradientUnits="userSpaceOnUse" x1="23.3022" y1="9.4686" x2="53.8083" y2="19.1185" gradientTransform="matrix(1 0 0 -1 0 46)">
	<stop  offset="0" style="stop-color:#AC4CBA"/>
	<stop  offset="1" style="stop-color:#DC3D8D"/>
</linearGradient>
<rect x="29.3" y="30.3" class="st1" width="26.1" height="0.5"/>
<linearGradient id="SVGID_00000069397211260100984940000010212915491430035885_" gradientUnits="userSpaceOnUse" x1="90.5319" y1="12.6704" x2="111.9328" y2="17.5732" gradientTransform="matrix(1 0 0 -1 0 46)">
	<stop  offset="0" style="stop-color:#AC4CBA"/>
	<stop  offset="1" style="stop-color:#DC3D8D"/>
</linearGradient>
<rect x="89.5" y="30.3" style="fill:url(#SVGID_00000069397211260100984940000010212915491430035885_);" width="26.8" height="0.5"/>
<g>
	<path class="st3" d="M23.8,25.6c-0.3,0.2-0.6,0.3-1,0.5c-0.6,0.2-1.3,0.3-2,0.3c-1,0-1.9-0.3-2.8-0.6c-0.5-0.2-1-0.4-1.6-0.6
		c0,0-0.1,0-0.1,0c-0.1,0-0.1-0.1-0.1-0.2c0-0.1,0.1-0.1,0.2-0.1c0.4,0.1,0.8,0.2,1.2,0.3c0.9,0.2,1.8,0.4,2.7,0.4
		c0.8,0,1.5-0.1,2.2-0.5c0.4-0.2,0.7-0.5,1-0.7L23.8,25.6z"/>
	
		<linearGradient id="SVGID_00000095323445375001059150000016252688865152805516_" gradientUnits="userSpaceOnUse" x1="6.3145" y1="33.8551" x2="17.5379" y2="18.1841" gradientTransform="matrix(1 0 0 -1 0 46)">
		<stop  offset="7.930000e-02" style="stop-color:#FF6CAB"/>
		<stop  offset="0.9399" style="stop-color:#7366FF"/>
	</linearGradient>
	<path style="fill:url(#SVGID_00000095323445375001059150000016252688865152805516_);" d="M22.8,15.8c-0.7-0.3-1.4-0.4-2.2-0.4
		c-1,0-1.9,0.3-2.8,0.8c-0.6,0.4-1.1,0.9-1.6,1.5c-0.4,0.6-0.8,1.3-1.1,2c-0.3,0.8-0.6,1.5-0.8,2.3c-0.4,1.4-0.9,2.9-1.3,4.3
		c-0.2,0.6-0.4,1.3-0.6,1.9c-0.2,0.7-0.5,1.3-0.9,1.9c-0.3,0.4-0.6,0.7-1,1c-0.4,0.3-0.9,0.5-1.5,0.6c-1.3,0.2-2.5-0.2-3.5-1.1
		c-0.1-0.1-0.2-0.2-0.4-0.4l0.6-5.8c0.1-0.1,0.2-0.1,0.3-0.2c0.6-0.4,1.2-0.6,2-0.7c0.9-0.1,1.7,0,2.6,0.2c0.6,0.1,1.2,0.3,1.9,0.4
		c0,0,0.1,0,0.1,0c0.1,0,0.1,0,0.2-0.1c0-0.1,0-0.1-0.1-0.2c-0.2-0.1-0.4-0.2-0.7-0.3c-0.6-0.2-1.3-0.5-2-0.7
		c-0.8-0.2-1.6-0.3-2.4-0.2c-0.6,0-1.1,0.2-1.7,0.4l0.8-7c0.1-1,0.9-1.7,1.9-1.7h12.2C21.8,14.2,22.6,14.9,22.8,15.8z"/>
	<path class="st3" d="M6.1,24.1c-0.1,0.1-0.2,0.1-0.3,0.2L6,22.9c0.5-0.2,1.1-0.4,1.7-0.4c0.8,0,1.6,0,2.4,0.2
		c0.7,0.2,1.3,0.4,2,0.7c0.2,0.1,0.4,0.2,0.7,0.3c0.1,0,0.1,0.1,0.1,0.2c0,0.1-0.1,0.1-0.2,0.1c0,0-0.1,0-0.1,0
		c-0.6-0.1-1.2-0.3-1.9-0.4c-0.9-0.2-1.7-0.3-2.6-0.2C7.3,23.5,6.7,23.7,6.1,24.1z"/>
	
		<linearGradient id="SVGID_00000025433358370131418550000000031996475639531652_" gradientUnits="userSpaceOnUse" x1="9.2469" y1="26.7492" x2="21.3618" y2="11.1153" gradientTransform="matrix(1 0 0 -1 0 46)">
		<stop  offset="0.3109" style="stop-color:#DC3D8D"/>
		<stop  offset="0.6269" style="stop-color:#C445A4"/>
		<stop  offset="0.9923" style="stop-color:#AC4CBA"/>
	</linearGradient>
	<path style="fill:url(#SVGID_00000025433358370131418550000000031996475639531652_);" d="M22.6,34.2H6.9c-1.1,0-1.9-0.9-1.9-2
		c0.2,0.1,0.3,0.2,0.5,0.3c0.9,0.6,1.9,0.8,2.9,0.9c0.8,0,1.5-0.1,2.2-0.4c1.1-0.4,1.9-1.2,2.6-2.1c0.5-0.8,0.9-1.6,1.2-2.5
		c0.2-0.7,0.4-1.4,0.7-2.1c0.5-1.5,0.9-3,1.4-4.6c0.2-0.7,0.4-1.4,0.7-2c0.3-0.6,0.7-1.2,1.2-1.7c0.7-0.6,1.5-0.9,2.4-0.9
		c0.6,0,1.3,0.1,1.9,0.4c0.1,0.1,0.2,0.1,0.4,0.2l0.7,6.5c-0.3,0.3-0.6,0.5-1,0.7c-0.7,0.4-1.4,0.5-2.2,0.5c-0.9,0-1.8-0.2-2.7-0.4
		c-0.4-0.1-0.8-0.2-1.2-0.3c-0.1,0-0.2,0-0.2,0.1c0,0.1,0,0.1,0.1,0.2c0,0,0.1,0,0.1,0c0.5,0.2,1,0.4,1.6,0.6
		c0.9,0.3,1.8,0.5,2.8,0.6c0.7,0,1.4-0.1,2-0.3c0.3-0.1,0.6-0.3,1-0.5l0.7,6.5C24.7,33.2,23.8,34.2,22.6,34.2z"/>
	<path class="st3" d="M16.4,21.8c-0.5,1.5-0.9,3-1.4,4.6c-0.2,0.7-0.4,1.4-0.7,2.1c-0.3,0.9-0.7,1.7-1.2,2.5c-0.6,1-1.5,1.7-2.6,2.1
		c-0.7,0.3-1.5,0.4-2.2,0.4c-1.1,0-2-0.3-2.9-0.9c-0.2-0.1-0.3-0.2-0.5-0.3c0-0.1,0-0.1,0-0.2l0.2-1.9c0.1,0.1,0.2,0.3,0.4,0.4
		c1,0.9,2.1,1.3,3.5,1.1c0.5-0.1,1-0.3,1.5-0.6c0.4-0.3,0.7-0.6,1-1c0.4-0.6,0.7-1.2,0.9-1.9c0.2-0.6,0.4-1.2,0.6-1.9
		c0.4-1.4,0.9-2.9,1.3-4.3c0.2-0.8,0.5-1.6,0.8-2.3c0.3-0.7,0.6-1.4,1.1-2c0.4-0.6,0.9-1.1,1.6-1.5c0.9-0.5,1.8-0.8,2.8-0.8
		c0.8,0,1.5,0.1,2.2,0.4c0,0.1,0,0.1,0,0.2l0.2,1.8c-0.1-0.1-0.2-0.1-0.4-0.2c-0.6-0.3-1.2-0.4-1.9-0.4c-0.9,0-1.7,0.3-2.4,0.9
		c-0.5,0.5-0.9,1.1-1.2,1.7C16.9,20.5,16.6,21.1,16.4,21.8z"/>
	
		<linearGradient id="SVGID_00000163794362977639424000000008526549370995159701_" gradientUnits="userSpaceOnUse" x1="2.7485" y1="21.5643" x2="26.4751" y2="21.5643" gradientTransform="matrix(1 0 0 -1 0 46)">
		<stop  offset="0" style="stop-color:#F35FFF"/>
		<stop  offset="1" style="stop-color:#8F43B5"/>
	</linearGradient>
	
		<path style="fill:#FFFFFF;stroke:url(#SVGID_00000163794362977639424000000008526549370995159701_);stroke-width:0.2;stroke-miterlimit:10;" d="
		M26.4,21c0,1.3-0.4,2.5-1.3,3.5c-0.4,0.5-0.8,0.8-1.2,1.1c-0.3,0.2-0.6,0.3-1,0.5c-0.6,0.2-1.3,0.3-2,0.3c-1,0-1.9-0.3-2.8-0.6
		c-0.5-0.2-1-0.4-1.6-0.6c0,0-0.1,0-0.1,0c-0.1,0-0.1-0.1-0.1-0.2c0-0.1,0.1-0.1,0.2-0.1c0.4,0.1,0.8,0.2,1.2,0.3
		c0.9,0.2,1.8,0.4,2.7,0.4c0.8,0,1.5-0.1,2.2-0.5c0.4-0.2,0.7-0.5,1-0.7c0.3-0.3,0.5-0.6,0.7-1c0.7-1.5,0.7-3-0.3-4.4
		c-0.3-0.4-0.7-0.8-1.1-1c-0.1-0.1-0.2-0.1-0.4-0.2c-0.6-0.3-1.2-0.4-1.9-0.4c-0.9,0-1.7,0.3-2.4,0.9c-0.5,0.5-0.9,1.1-1.2,1.7
		c-0.3,0.7-0.5,1.4-0.7,2c-0.5,1.5-0.9,3-1.4,4.6c-0.2,0.7-0.4,1.4-0.7,2.1c-0.3,0.9-0.7,1.7-1.2,2.5c-0.6,1-1.5,1.7-2.6,2.1
		c-0.7,0.3-1.5,0.4-2.2,0.4c-1.1,0-2-0.3-2.9-0.9c-0.2-0.1-0.3-0.2-0.5-0.3c-0.5-0.4-1-0.9-1.3-1.5c-0.2-0.4-0.4-0.8-0.6-1.2
		c-0.2-0.6-0.3-1.2-0.2-1.9c0-0.6,0.2-1.2,0.4-1.8c0.5-1.2,1.3-2.1,2.4-2.8C5.7,23,5.9,23,6,22.9c0.5-0.2,1.1-0.4,1.7-0.4
		c0.8,0,1.7,0,2.5,0.2c0.7,0.2,1.3,0.4,2,0.7c0.2,0.1,0.4,0.2,0.7,0.3c0.1,0,0.1,0.1,0.1,0.2c0,0.1-0.1,0.1-0.2,0.1c0,0-0.1,0-0.1,0
		c-0.6-0.1-1.2-0.3-1.9-0.4c-0.9-0.2-1.7-0.3-2.6-0.2c-0.7,0.1-1.4,0.3-1.9,0.7c-0.1,0.1-0.2,0.1-0.3,0.2c-0.8,0.6-1.3,1.4-1.5,2.4
		c-0.3,1.3,0,2.5,0.8,3.4c0.1,0.1,0.2,0.3,0.4,0.4c1,0.9,2.1,1.3,3.5,1.1c0.5-0.1,1-0.3,1.5-0.6c0.4-0.3,0.7-0.6,1-1
		c0.4-0.6,0.7-1.2,0.9-1.9c0.2-0.6,0.4-1.2,0.6-1.9c0.4-1.4,0.9-2.9,1.3-4.3c0.2-0.8,0.5-1.6,0.8-2.3c0.3-0.7,0.6-1.4,1.1-2
		c0.4-0.6,0.9-1.1,1.6-1.5c0.9-0.5,1.8-0.8,2.8-0.8c0.8,0,1.5,0.1,2.2,0.4c0.5,0.2,1,0.4,1.4,0.8c0.8,0.6,1.3,1.3,1.7,2.2
		C26.2,19.5,26.4,20.2,26.4,21z"/>
	<circle class="st0" cx="16.1" cy="15.5" r="0.5"/>
	<circle class="st0" cx="13.1" cy="15.5" r="0.5"/>
	<g>
		
			<linearGradient id="SVGID_00000163778076704378327500000008324824103414420904_" gradientUnits="userSpaceOnUse" x1="14.6526" y1="30.2858" x2="14.4735" y2="36.1662" gradientTransform="matrix(1 0 0 -1 0 46)">
			<stop  offset="0" style="stop-color:#AC4CBA"/>
			<stop  offset="0.4163" style="stop-color:#9445B6"/>
			<stop  offset="1" style="stop-color:#6C39B0"/>
		</linearGradient>
		<path style="fill:url(#SVGID_00000163778076704378327500000008324824103414420904_);" d="M16.1,15.7c-0.1,0-0.2-0.1-0.2-0.2v-3
			c0-0.7-0.6-1.3-1.3-1.3s-1.3,0.6-1.3,1.3v3c0,0.1-0.1,0.2-0.2,0.2s-0.2-0.1-0.2-0.2v-3c0-0.9,0.8-1.7,1.7-1.7s1.7,0.8,1.7,1.7v3
			C16.3,15.6,16.2,15.7,16.1,15.7z"/>
	</g>
</g>
</svg>
