<?xml version="1.0" encoding="utf-8"?>
<!-- Generator: Adobe Illustrator 27.3.1, SVG Export Plug-In . SVG Version: 6.00 Build 0)  -->
<svg version="1.0" id="Layer_1" xmlns="http://www.w3.org/2000/svg" xmlns:xlink="http://www.w3.org/1999/xlink" x="0px" y="0px"
	 viewBox="0 0 120 45" style="enable-background:new 0 0 120 45;" xml:space="preserve">
<style type="text/css">
	.st0{fill:#202545;}
	.st1{fill:url(#SVGID_1_);}
	.st2{fill:url(#SVGID_00000142157792879771129590000009312233396600879282_);}
	.st3{fill:#096260;}
	.st4{fill:url(#SVGID_00000085246025042629513630000007766538379813131709_);}
	.st5{fill:url(#SVGID_00000121973334098986401480000005084435826466313861_);}
	
		.st6{fill:#FFFFFF;stroke:url(#SVGID_00000027569510379340002430000014365433190293930382_);stroke-width:0.2;stroke-miterlimit:10;}
	.st7{fill:#FFFFFF;}
	.st8{fill:url(#SVGID_00000075850541473909640630000002485281605005899392_);}
</style>
<g>
	<path class="st0" d="M38.16,17.12c0.19,0,0.27,0.09,0.27,0.27v1.19c0,0.19-0.09,0.27-0.27,0.27H31.9c-0.47,0-0.66,0.26-0.66,0.7
		v0.42c0,0.46,0.21,0.7,0.65,0.7h4.68c1.44,0,2.18,0.77,2.18,2.15v1c0,1.21-0.7,2.03-2.21,2.03h-6.91c-0.19,0-0.29-0.09-0.29-0.27
		v-1.19c0-0.19,0.1-0.27,0.29-0.27h6.55c0.47,0,0.66-0.26,0.66-0.7v-0.51c0-0.46-0.21-0.7-0.65-0.7h-4.68
		c-1.44,0-2.18-0.77-2.18-2.15v-0.91c0-1.21,0.7-2.03,2.21-2.03H38.16z"/>
	<path class="st0" d="M46.53,19c2.25,0,2.97,0.72,2.97,2.53v1.8c0,1.81-0.72,2.52-2.97,2.52H43c-2.25,0-2.97-0.71-2.97-2.52v-1.8
		c0-1.81,0.72-2.53,2.97-2.53H46.53z M41.81,23.02c0,1.05,0.29,1.37,1.36,1.37h3.18c1.09,0,1.37-0.32,1.37-1.37v-1.19
		c0-1.05-0.29-1.36-1.37-1.36h-3.18c-1.07,0-1.36,0.31-1.36,1.36V23.02z"/>
	<path class="st0" d="M52.44,16.5c0.19,0,0.27,0.09,0.27,0.27V19h4.68c2.25,0,2.97,0.72,2.97,2.53v1.8c0,1.81-0.72,2.52-2.97,2.52
		H53.9c-2.25,0-2.97-0.71-2.97-2.52v-6.56c0-0.19,0.1-0.27,0.29-0.27H52.44z M52.72,20.5v2.48c0,1.05,0.29,1.37,1.36,1.37h3.14
		c1.09,0,1.37-0.32,1.37-1.37v-1.11c0-1.05-0.29-1.37-1.37-1.37H52.72z"/>
	<path class="st0" d="M68.95,17.12c1.91,0,2.68,0.89,2.68,2.57v0.71c0,1.42-0.55,2.26-1.86,2.5l2.13,2.65
		c0.07,0.09,0.06,0.31-0.16,0.31h-1.61c-0.21,0-0.27-0.05-0.35-0.16l-1.97-2.6h-4.03v2.48c0,0.19-0.09,0.27-0.27,0.27h-1.35
		c-0.19,0-0.29-0.09-0.29-0.27v-8.09c0-0.25,0.12-0.37,0.37-0.37H68.95z M63.79,21.57h4.78c0.85,0,1.16-0.36,1.16-1.11v-0.52
		c0-0.75-0.31-1.11-1.16-1.11h-4.62c-0.11,0-0.16,0.05-0.16,0.15V21.57z"/>
	<path class="st0" d="M79.13,19c2.25,0,2.97,0.72,2.97,2.53v1.8c0,1.81-0.72,2.52-2.97,2.52H75.6c-2.25,0-2.97-0.71-2.97-2.52v-1.8
		c0-1.81,0.72-2.53,2.97-2.53H79.13z M74.42,23.02c0,1.05,0.29,1.37,1.36,1.37h3.18c1.09,0,1.37-0.32,1.37-1.37v-1.19
		c0-1.05-0.29-1.36-1.37-1.36h-3.18c-1.07,0-1.36,0.31-1.36,1.36V23.02z"/>
	<path class="st0" d="M85.07,16.5c0.19,0,0.27,0.09,0.27,0.27v4.94h2.3c0.71,0,0.91-0.06,1.24-0.52l1.4-1.97
		c0.1-0.15,0.19-0.21,0.37-0.21h1.41c0.19,0,0.24,0.17,0.12,0.34l-1.61,2.21c-0.25,0.34-0.5,0.6-0.77,0.8
		c0.35,0.2,0.64,0.46,0.89,0.8l1.77,2.4c0.1,0.14,0.04,0.31-0.15,0.31h-1.4c-0.21,0-0.29-0.04-0.39-0.17l-1.52-2.1
		c-0.3-0.4-0.56-0.52-1.25-0.52h-2.41v2.52c0,0.19-0.09,0.27-0.27,0.27h-1.22c-0.19,0-0.29-0.09-0.29-0.27v-8.81
		c0-0.19,0.1-0.27,0.29-0.27H85.07z"/>
	<path class="st0" d="M99.62,19c2.25,0,2.97,0.72,2.97,2.53v1.8c0,1.81-0.72,2.52-2.97,2.52h-3.53c-2.25,0-2.97-0.71-2.97-2.52v-1.8
		c0-1.81,0.72-2.53,2.97-2.53H99.62z M94.91,23.02c0,1.05,0.29,1.37,1.36,1.37h3.18c1.09,0,1.37-0.32,1.37-1.37v-1.19
		c0-1.05-0.29-1.36-1.37-1.36h-3.18c-1.07,0-1.36,0.31-1.36,1.36V23.02z"/>
	<path class="st0" d="M113.38,19c2.25,0,2.96,0.72,2.96,2.53v4.04c0,0.19-0.09,0.27-0.27,0.27h-1.22c-0.19,0-0.27-0.09-0.27-0.27
		v-3.62c0-1.05-0.2-1.37-1.29-1.37h-2.2v4.99c0,0.19-0.1,0.27-0.29,0.27h-1.22c-0.19,0-0.27-0.09-0.27-0.27v-4.99h-2.12
		c-1.07,0-1.36,0.32-1.36,1.37v3.62c0,0.19-0.09,0.27-0.27,0.27h-1.22c-0.19,0-0.29-0.09-0.29-0.27v-4.04
		c0-1.81,0.72-2.53,2.97-2.53H113.38z"/>
</g>
<g>
	<path class="st0" d="M57.47,28.62c0.07,0,0.1,0.03,0.1,0.1v1.82c0,0.48,0.14,0.62,0.61,0.62h1.85c0.07,0,0.1,0.03,0.1,0.1v0.45
		c0,0.07-0.03,0.1-0.1,0.1h-1.88c-0.92,0-1.28-0.33-1.28-1.2v-1.89c0-0.07,0.04-0.1,0.1-0.1H57.47z"/>
	<path class="st0" d="M62.94,29.31c0.62,0,0.79,0.2,0.79,0.75v0.43c0,0.2-0.08,0.26-0.26,0.26h-2.3v0.11c0,0.29,0.11,0.41,0.5,0.41
		h1.9c0.05,0,0.08,0.03,0.08,0.08v0.38c0,0.05-0.03,0.08-0.08,0.08H61.6c-0.82,0-1.09-0.26-1.09-0.92v-0.66
		c0-0.66,0.26-0.93,1.09-0.93H62.94z M61.16,30.34h1.85c0.05,0,0.08-0.02,0.08-0.08v-0.19c0-0.19-0.07-0.26-0.28-0.26h-1.15
		c-0.4,0-0.5,0.11-0.5,0.41V30.34z"/>
	<path class="st0" d="M64.66,29.31v-0.6c0-0.07,0.04-0.1,0.1-0.1h0.45c0.06,0,0.1,0.03,0.1,0.1v0.6h0.8c0.06,0,0.08,0.03,0.08,0.08
		v0.37c0,0.05-0.02,0.08-0.08,0.08h-0.8v1.06c0,0.25,0.08,0.37,0.38,0.37h0.44c0.06,0,0.08,0.03,0.08,0.08v0.37
		c0,0.05-0.02,0.08-0.08,0.08h-0.55c-0.73,0-0.93-0.26-0.93-0.91v-1.06h-0.43c-0.06,0-0.08-0.03-0.08-0.08v-0.37
		c0-0.05,0.03-0.08,0.08-0.08H64.66z"/>
	<path class="st0" d="M67.3,28.39c0.06,0,0.1,0.04,0.09,0.12l-0.11,1.21c0,0.07-0.04,0.1-0.1,0.1h-0.25c-0.06,0-0.1-0.02-0.1-0.1
		l-0.11-1.21c-0.01-0.08,0.02-0.12,0.09-0.12H67.3z"/>
	<path class="st0" d="M70.82,29.31c0.05,0,0.08,0.03,0.08,0.08v0.37c0,0.05-0.03,0.08-0.08,0.08h-2.06c-0.19,0-0.25,0.07-0.25,0.21
		v0.07c0,0.12,0.06,0.2,0.25,0.2h1.54c0.51,0,0.71,0.22,0.71,0.61v0.26c0,0.4-0.18,0.64-0.72,0.64h-2.34
		c-0.05,0-0.08-0.03-0.08-0.08v-0.37c0-0.05,0.03-0.08,0.08-0.08h2.16c0.19,0,0.25-0.06,0.25-0.22v-0.12c0-0.12-0.07-0.19-0.25-0.19
		h-1.53c-0.51,0-0.71-0.21-0.71-0.62v-0.2c0-0.38,0.18-0.62,0.72-0.62H70.82z"/>
	<path class="st0" d="M76.2,29.31c0.05,0,0.08,0.03,0.08,0.08v0.37c0,0.05-0.03,0.08-0.08,0.08h-2.06c-0.19,0-0.25,0.07-0.25,0.21
		v0.07c0,0.12,0.06,0.2,0.25,0.2h1.54c0.51,0,0.71,0.22,0.71,0.61v0.26c0,0.4-0.18,0.64-0.72,0.64h-2.34
		c-0.05,0-0.08-0.03-0.08-0.08v-0.37c0-0.05,0.03-0.08,0.08-0.08h2.16c0.19,0,0.25-0.06,0.25-0.22v-0.12c0-0.12-0.07-0.19-0.25-0.19
		h-1.53c-0.51,0-0.71-0.21-0.71-0.62v-0.2c0-0.38,0.18-0.62,0.72-0.62H76.2z"/>
	<path class="st0" d="M77.57,28.39c0.07,0,0.1,0.03,0.1,0.1v0.82h1.71c0.82,0,1.09,0.26,1.09,0.93v1.48c0,0.07-0.03,0.1-0.1,0.1
		h-0.45c-0.07,0-0.1-0.03-0.1-0.1v-1.32c0-0.38-0.08-0.5-0.47-0.5h-1.67v1.83c0,0.07-0.03,0.1-0.1,0.1h-0.45
		c-0.07,0-0.1-0.03-0.1-0.1v-3.22c0-0.07,0.03-0.1,0.1-0.1H77.57z"/>
	<path class="st0" d="M83.5,29.31c0.82,0,1.09,0.26,1.09,0.93v0.66c0,0.66-0.26,0.92-1.09,0.92h-1.29c-0.82,0-1.09-0.26-1.09-0.92
		v-0.66c0-0.66,0.26-0.93,1.09-0.93H83.5z M81.77,30.78c0,0.38,0.11,0.5,0.5,0.5h1.16c0.4,0,0.5-0.12,0.5-0.5v-0.43
		c0-0.38-0.11-0.5-0.5-0.5h-1.16c-0.39,0-0.5,0.11-0.5,0.5V30.78z"/>
	<path class="st0" d="M87.61,29.31c0.82,0,1.09,0.26,1.09,0.93v0.66c0,0.66-0.26,0.92-1.09,0.92H85.9v0.91c0,0.07-0.03,0.1-0.1,0.1
		h-0.45c-0.07,0-0.11-0.03-0.11-0.1v-2.49c0-0.66,0.26-0.93,1.09-0.93H87.61z M85.9,31.26h1.65c0.4,0,0.5-0.11,0.5-0.5v-0.41
		c0-0.38-0.11-0.5-0.5-0.5H86.4c-0.39,0-0.5,0.12-0.5,0.5V31.26z"/>
</g>
<linearGradient id="SVGID_1_" gradientUnits="userSpaceOnUse" x1="23.3022" y1="36.5313" x2="53.8083" y2="26.8814">
	<stop  offset="0" style="stop-color:#AC4CBA"/>
	<stop  offset="1" style="stop-color:#DC3D8D"/>
</linearGradient>
<rect x="29.34" y="30.26" class="st1" width="26.09" height="0.47"/>
<linearGradient id="SVGID_00000094617345821425927770000004464430767474185889_" gradientUnits="userSpaceOnUse" x1="90.5316" y1="33.3285" x2="111.9325" y2="28.4257">
	<stop  offset="0" style="stop-color:#AC4CBA"/>
	<stop  offset="1" style="stop-color:#DC3D8D"/>
</linearGradient>
<rect x="89.48" y="30.26" style="fill:url(#SVGID_00000094617345821425927770000004464430767474185889_);" width="26.85" height="0.47"/>
<g>
	<path class="st3" d="M23.83,25.61c-0.3,0.18-0.61,0.33-0.95,0.46c-0.65,0.24-1.32,0.34-2.01,0.3c-0.96-0.05-1.88-0.27-2.77-0.58
		c-0.52-0.18-1.04-0.39-1.56-0.58c-0.03-0.01-0.06-0.02-0.09-0.04c-0.07-0.04-0.09-0.1-0.07-0.18c0.03-0.11,0.1-0.14,0.25-0.1
		c0.39,0.09,0.79,0.18,1.18,0.27c0.89,0.2,1.77,0.38,2.69,0.37c0.77-0.01,1.51-0.14,2.2-0.51c0.37-0.2,0.71-0.45,0.99-0.74
		L23.83,25.61z"/>
	
		<linearGradient id="SVGID_00000001621365809520921000000002618406917786333849_" gradientUnits="userSpaceOnUse" x1="6.3205" y1="12.1406" x2="17.5439" y2="27.8116">
		<stop  offset="0.0793" style="stop-color:#FF6CAB"/>
		<stop  offset="0.9399" style="stop-color:#7366FF"/>
	</linearGradient>
	<path style="fill:url(#SVGID_00000001621365809520921000000002618406917786333849_);" d="M22.76,15.77
		c-0.7-0.27-1.44-0.39-2.23-0.38c-1,0.01-1.93,0.3-2.79,0.82c-0.62,0.38-1.13,0.88-1.56,1.46c-0.45,0.61-0.8,1.28-1.08,1.98
		c-0.31,0.77-0.55,1.55-0.79,2.34c-0.44,1.43-0.87,2.87-1.31,4.3c-0.19,0.63-0.38,1.26-0.59,1.88c-0.22,0.67-0.52,1.31-0.93,1.89
		c-0.27,0.38-0.59,0.72-0.98,0.99c-0.45,0.31-0.95,0.5-1.49,0.59c-1.34,0.22-2.5-0.16-3.47-1.09c-0.13-0.12-0.25-0.25-0.36-0.38
		l0.64-5.84c0.09-0.08,0.19-0.15,0.28-0.22c0.58-0.42,1.24-0.63,1.95-0.71c0.88-0.09,1.74-0.02,2.6,0.17
		c0.62,0.14,1.25,0.28,1.87,0.42c0.04,0.01,0.08,0.02,0.13,0.02c0.09,0.01,0.14-0.03,0.16-0.11c0.02-0.09,0-0.15-0.08-0.18
		c-0.22-0.09-0.44-0.17-0.66-0.26c-0.65-0.25-1.31-0.49-1.99-0.67c-0.8-0.21-1.62-0.31-2.45-0.25c-0.58,0.04-1.13,0.17-1.66,0.41
		l0.76-6.98c0.11-0.98,0.93-1.72,1.92-1.72h12.21C21.79,14.25,22.57,14.89,22.76,15.77z"/>
	<path class="st3" d="M6.12,24.1c-0.1,0.07-0.19,0.14-0.28,0.22l0.15-1.37c0.52-0.24,1.08-0.37,1.66-0.41
		c0.83-0.05,1.65,0.04,2.45,0.25c0.68,0.18,1.34,0.42,1.99,0.67c0.22,0.09,0.44,0.17,0.66,0.26c0.09,0.04,0.11,0.09,0.08,0.18
		c-0.02,0.08-0.07,0.12-0.16,0.11c-0.04,0-0.09-0.01-0.13-0.02c-0.62-0.14-1.25-0.28-1.87-0.42c-0.86-0.19-1.72-0.27-2.6-0.17
		C7.35,23.47,6.7,23.69,6.12,24.1z"/>
	
		<linearGradient id="SVGID_00000126313840695974382280000004909842628373027970_" gradientUnits="userSpaceOnUse" x1="9.238" y1="19.2577" x2="21.3529" y2="34.8916">
		<stop  offset="0.3109" style="stop-color:#DC3D8D"/>
		<stop  offset="0.6269" style="stop-color:#C445A4"/>
		<stop  offset="0.9923" style="stop-color:#AC4CBA"/>
	</linearGradient>
	<path style="fill:url(#SVGID_00000126313840695974382280000004909842628373027970_);" d="M22.62,34.22H6.91
		c-1.09,0-1.95-0.89-1.93-1.95c0.16,0.12,0.32,0.24,0.5,0.35c0.89,0.56,1.86,0.84,2.9,0.88c0.77,0.02,1.52-0.12,2.24-0.4
		c1.09-0.43,1.92-1.17,2.57-2.13c0.51-0.76,0.9-1.58,1.19-2.45c0.23-0.7,0.45-1.4,0.66-2.1c0.46-1.52,0.92-3.05,1.39-4.57
		c0.21-0.69,0.43-1.39,0.74-2.05c0.3-0.64,0.67-1.24,1.22-1.71c0.69-0.59,1.49-0.87,2.39-0.89c0.65-0.01,1.27,0.12,1.86,0.4
		c0.13,0.06,0.25,0.13,0.37,0.2l0.7,6.48c-0.29,0.29-0.62,0.53-0.99,0.74c-0.69,0.38-1.43,0.5-2.2,0.51
		c-0.92,0.01-1.8-0.17-2.69-0.37c-0.39-0.09-0.79-0.18-1.18-0.27c-0.15-0.03-0.22,0-0.25,0.1c-0.02,0.08,0,0.14,0.07,0.18
		c0.03,0.02,0.06,0.03,0.09,0.04c0.52,0.19,1.04,0.4,1.56,0.58c0.9,0.32,1.82,0.53,2.77,0.58c0.69,0.03,1.36-0.07,2.01-0.3
		c0.34-0.12,0.65-0.28,0.95-0.46l0.7,6.48C24.66,33.23,23.77,34.22,22.62,34.22z"/>
	<path class="st3" d="M16.42,21.84c-0.46,1.52-0.92,3.05-1.39,4.57c-0.21,0.7-0.43,1.4-0.66,2.1c-0.29,0.87-0.68,1.69-1.19,2.45
		c-0.64,0.96-1.47,1.7-2.57,2.13c-0.72,0.28-1.47,0.42-2.24,0.4c-1.05-0.03-2.02-0.32-2.9-0.88c-0.17-0.11-0.34-0.22-0.5-0.35
		c0-0.06,0-0.12,0.01-0.18l0.21-1.93c0.11,0.13,0.23,0.26,0.36,0.38c0.96,0.93,2.13,1.31,3.47,1.09c0.54-0.09,1.04-0.28,1.49-0.59
		c0.39-0.27,0.71-0.61,0.98-0.99c0.41-0.58,0.71-1.22,0.93-1.89c0.21-0.62,0.39-1.25,0.59-1.88c0.44-1.43,0.87-2.87,1.31-4.3
		c0.24-0.79,0.48-1.58,0.79-2.34c0.28-0.7,0.63-1.37,1.08-1.98c0.43-0.58,0.94-1.08,1.56-1.46c0.86-0.52,1.78-0.8,2.79-0.82
		c0.79-0.01,1.53,0.11,2.23,0.38c0.01,0.06,0.02,0.13,0.03,0.19l0.2,1.84c-0.12-0.07-0.24-0.14-0.37-0.2
		c-0.58-0.28-1.21-0.42-1.86-0.4c-0.9,0.02-1.7,0.3-2.39,0.89c-0.55,0.47-0.92,1.07-1.22,1.71C16.85,20.46,16.63,21.15,16.42,21.84z
		"/>
	
		<linearGradient id="SVGID_00000036964387347369211200000000075748569798433967_" gradientUnits="userSpaceOnUse" x1="2.7485" y1="24.4442" x2="26.4522" y2="24.4442">
		<stop  offset="0" style="stop-color:#F35FFF"/>
		<stop  offset="1" style="stop-color:#8F43B5"/>
	</linearGradient>
	
		<path style="fill:#FFFFFF;stroke:url(#SVGID_00000036964387347369211200000000075748569798433967_);stroke-width:0.2;stroke-miterlimit:10;" d="
		M26.35,20.99c-0.01,1.32-0.44,2.49-1.27,3.51c-0.36,0.45-0.78,0.81-1.25,1.1c-0.3,0.18-0.61,0.33-0.95,0.46
		c-0.65,0.24-1.32,0.34-2.01,0.3c-0.96-0.05-1.88-0.27-2.77-0.58c-0.52-0.18-1.04-0.39-1.56-0.58c-0.03-0.01-0.06-0.02-0.09-0.04
		c-0.07-0.04-0.09-0.1-0.07-0.18c0.03-0.11,0.1-0.14,0.25-0.1c0.39,0.09,0.79,0.18,1.18,0.27c0.89,0.2,1.77,0.38,2.69,0.37
		c0.77-0.01,1.51-0.14,2.2-0.51c0.37-0.2,0.71-0.45,0.99-0.74c0.3-0.3,0.55-0.65,0.74-1.04c0.73-1.52,0.66-3.01-0.34-4.41
		c-0.3-0.42-0.67-0.76-1.1-1.03c-0.12-0.07-0.24-0.14-0.37-0.2c-0.58-0.28-1.21-0.42-1.86-0.4c-0.9,0.02-1.7,0.3-2.39,0.89
		c-0.55,0.47-0.92,1.07-1.22,1.71c-0.31,0.66-0.53,1.35-0.74,2.05c-0.46,1.52-0.92,3.05-1.39,4.57c-0.21,0.7-0.43,1.4-0.66,2.1
		c-0.29,0.87-0.68,1.69-1.19,2.45c-0.64,0.96-1.47,1.7-2.57,2.13c-0.72,0.28-1.47,0.42-2.24,0.4c-1.05-0.03-2.02-0.32-2.9-0.88
		c-0.17-0.11-0.34-0.22-0.5-0.35c-0.52-0.41-0.96-0.9-1.32-1.48c-0.24-0.39-0.42-0.8-0.56-1.24c-0.2-0.62-0.28-1.25-0.25-1.89
		c0.03-0.62,0.16-1.23,0.39-1.81c0.49-1.2,1.29-2.12,2.42-2.75c0.1-0.05,0.21-0.11,0.31-0.15c0.52-0.24,1.08-0.37,1.66-0.41
		c0.83-0.05,1.65,0.04,2.45,0.25c0.68,0.18,1.34,0.42,1.99,0.67c0.22,0.09,0.44,0.17,0.66,0.26c0.09,0.04,0.11,0.09,0.08,0.18
		c-0.02,0.08-0.07,0.12-0.16,0.11c-0.04,0-0.09-0.01-0.13-0.02c-0.62-0.14-1.25-0.28-1.87-0.42c-0.86-0.19-1.72-0.27-2.6-0.17
		c-0.71,0.07-1.37,0.29-1.95,0.71c-0.1,0.07-0.19,0.14-0.28,0.22c-0.75,0.62-1.26,1.43-1.45,2.41c-0.26,1.3,0.01,2.46,0.82,3.43
		c0.11,0.13,0.23,0.26,0.36,0.38c0.96,0.93,2.13,1.31,3.47,1.09c0.54-0.09,1.04-0.28,1.49-0.59c0.39-0.27,0.71-0.61,0.98-0.99
		c0.41-0.58,0.71-1.22,0.93-1.89c0.21-0.62,0.39-1.25,0.59-1.88c0.44-1.43,0.87-2.87,1.31-4.3c0.24-0.79,0.48-1.58,0.79-2.34
		c0.28-0.7,0.63-1.37,1.08-1.98c0.43-0.58,0.94-1.08,1.56-1.46c0.86-0.52,1.78-0.8,2.79-0.82c0.79-0.01,1.53,0.11,2.23,0.38
		c0.49,0.19,0.96,0.45,1.4,0.78c0.76,0.58,1.33,1.32,1.72,2.19C26.2,19.46,26.36,20.21,26.35,20.99z"/>
	<circle class="st7" cx="16.11" cy="15.51" r="0.5"/>
	<circle class="st7" cx="13.09" cy="15.51" r="0.5"/>
	<g>
		
			<linearGradient id="SVGID_00000036235824617569013390000014404481791489356729_" gradientUnits="userSpaceOnUse" x1="14.653" y1="15.7142" x2="14.4739" y2="9.8338">
			<stop  offset="0" style="stop-color:#AC4CBA"/>
			<stop  offset="0.4163" style="stop-color:#9445B6"/>
			<stop  offset="1" style="stop-color:#6C39B0"/>
		</linearGradient>
		<path style="fill:url(#SVGID_00000036235824617569013390000014404481791489356729_);" d="M16.11,15.71c-0.11,0-0.2-0.09-0.2-0.2
			v-3.02c0-0.72-0.59-1.31-1.31-1.31s-1.31,0.59-1.31,1.31v3.02c0,0.11-0.09,0.2-0.2,0.2s-0.2-0.09-0.2-0.2v-3.02
			c0-0.94,0.77-1.71,1.71-1.71s1.71,0.77,1.71,1.71v3.02C16.31,15.62,16.22,15.71,16.11,15.71z"/>
	</g>
</g>
</svg>
